<?xml version="1.0" encoding="utf-8"?>
<!-- Generator: Adobe Illustrator 18.1.1, SVG Export Plug-In . SVG Version: 6.00 Build 0)  -->
<svg version="1.1" id="Layer_1" xmlns="http://www.w3.org/2000/svg" xmlns:xlink="http://www.w3.org/1999/xlink" x="0px" y="0px"
	 viewBox="0 0 792 612" enable-background="new 0 0 792 612" xml:space="preserve">
<g>
	<g>
		<polygon fill="#6DC497" points="401.8,164.2 422.2,180.4 447.2,173.2 459.8,196 485.7,199 488.7,224.9 511.5,237.5 504.3,262.5 
			520.5,282.9 504.3,303.3 511.5,328.4 488.7,341 485.7,366.9 459.8,369.8 447.2,392.6 422.2,385.5 401.8,401.7 381.4,385.5 
			356.3,392.6 343.7,369.8 317.8,366.9 314.9,341 292.1,328.4 299.3,303.3 283,282.9 299.3,262.5 292.1,237.5 314.9,224.9 
			317.8,199 343.7,196 356.3,173.2 381.4,180.4 		"/>
	</g>
	<g>
		<path fill="#6DC497" d="M507.3,282.9c0,58.3-47.2,105.5-105.5,105.5c-58.3,0-105.5-47.2-105.5-105.5
			c0-58.3,47.2-105.5,105.5-105.5C460,177.4,507.3,224.7,507.3,282.9"/>
	</g>
	<g>
		<path fill="#6DC497" d="M401.8,407.9c-21.6,0-39.2-17.6-39.2-39.2V197.1c0-21.6,17.6-39.2,39.2-39.2c21.6,0,39.2,17.6,39.2,39.2
			v171.6C441,390.3,423.3,407.9,401.8,407.9"/>
	</g>
	<g>
		<path fill="#6DC497" d="M526.8,282.9c0,21.6-17.6,39.2-39.2,39.2H316c-21.6,0-39.2-17.6-39.2-39.2c0-21.6,17.6-39.2,39.2-39.2
			h171.6C509.1,243.7,526.8,261.4,526.8,282.9"/>
	</g>
	<g>
		<path fill="#FFFFFF" d="M496.3,282.9c0,52.2-42.3,94.5-94.5,94.5c-52.2,0-94.5-42.3-94.5-94.5c0-52.2,42.3-94.5,94.5-94.5
			C454,188.4,496.3,230.7,496.3,282.9"/>
	</g>
	<g>
		<path fill="#6DC497" d="M393.2,193c0,0-0.1,0-0.1,0c-0.1,0-0.3,0-0.4,0l0,0c0,0,0,0,0,0h0c0,0,0,0,0,0l0,0c0,0,0,0,0,0
			c0,0,0,0,0,0c0,0,0,0,0,0c0,0,0,0,0,0c0,0,0,0,0,0c0,0,0,0,0,0c0,0,0,0,0,0c0,0,0,0,0,0c0,0,0,0,0,0c0,0,0,0,0,0c0,0,0,0,0,0
			c0,0,0,0,0,0c0,0,0,0,0,0c-0.6,0.1-1.2,0.1-1.8,0.2h0c0,0,0,0,0,0c0,0,0,0,0,0c0,0,0,0,0,0c0,0,0,0,0,0c0,0,0,0,0,0c0,0,0,0,0,0
			c0,0,0,0,0,0c0,0,0,0,0,0c0,0,0,0,0,0c0,0,0,0,0,0c0,0,0,0,0,0c0,0,0,0,0,0c0,0,0,0,0,0c0,0,0,0,0,0c0,0,0,0,0,0c0,0,0,0,0,0
			c0,0,0,0,0,0c0,0,0,0,0,0c0,0,0,0,0,0c0,0,0,0,0,0c0,0,0,0,0,0c0,0,0,0,0,0c0,0,0,0,0,0c0,0,0,0,0,0h0c-0.4,0.1-0.9,0.1-1.3,0.2
			c-0.8,0.1-1.3,0.9-1.2,1.6c0.1,0.7,0.7,1.2,1.4,1.2c0.1,0,0.1,0,0.2,0c1.4-0.2,2.8-0.4,4.2-0.5c0.8-0.1,1.4-0.8,1.3-1.6
			C394.6,193.6,394,193,393.2,193 M384.7,194.3c-0.1,0-0.2,0-0.3,0c-1.4,0.3-2.9,0.6-4.3,0.9c-0.8,0.2-1.3,1-1.1,1.8
			c0.2,0.7,0.8,1.1,1.4,1.1c0.1,0,0.2,0,0.3,0c1.4-0.3,2.7-0.6,4.1-0.9c0.8-0.2,1.3-0.9,1.1-1.7C386,194.8,385.4,194.3,384.7,194.3
			 M376.4,196.3c-0.1,0-0.3,0-0.4,0.1c-0.6,0.2-1.2,0.4-1.8,0.6c0,0,0,0,0,0c0,0,0,0,0,0c0,0,0,0,0,0c0,0,0,0,0,0l0,0l0,0
			c0,0,0,0,0,0c0,0,0,0,0,0c0,0,0,0,0,0c0,0,0,0,0,0c0,0,0,0,0,0c0,0,0,0,0,0c0,0,0,0,0,0c0,0,0,0,0,0c0,0,0,0,0,0c0,0,0,0,0,0
			c0,0,0,0,0,0c0,0,0,0,0,0c0,0,0,0,0,0c0,0,0,0,0,0c0,0,0,0,0,0c0,0,0,0,0,0c0,0,0,0,0,0c0,0,0,0,0,0c0,0,0,0,0,0c0,0,0,0,0,0
			c0,0,0,0,0,0c0,0,0,0,0,0l0,0c0,0,0,0,0,0c0,0,0,0,0,0s0,0,0,0c0,0,0,0,0,0c0,0,0,0,0,0c0,0,0,0,0,0c0,0,0,0,0,0c0,0,0,0,0,0
			c0,0,0,0,0,0c0,0,0,0,0,0c0,0,0,0,0,0c0,0,0,0,0,0c0,0,0,0,0,0c0,0,0,0,0,0c0,0,0,0,0,0c0,0,0,0,0,0c0,0,0,0,0,0c0,0,0,0,0,0
			s0,0,0,0c0,0,0,0,0,0c0,0,0,0,0,0l0,0c0,0,0,0,0,0c0,0,0,0,0,0c0,0,0,0,0,0l0,0c0,0,0,0,0,0c0,0,0,0,0,0c0,0,0,0,0,0c0,0,0,0,0,0
			c0,0,0,0,0,0c0,0,0,0,0,0c0,0,0,0,0,0c0,0,0,0,0,0c0,0,0,0,0,0c0,0,0,0,0,0c0,0,0,0,0,0c0,0,0,0,0,0c0,0,0,0,0,0l0,0c0,0,0,0,0,0
			c0,0,0,0,0,0c0,0,0,0,0,0l0,0c0,0,0,0,0,0c0,0,0,0,0,0c0,0,0,0,0,0c0,0,0,0,0,0c0,0,0,0,0,0c0,0,0,0,0,0c0,0,0,0,0,0l0,0
			c-0.3,0.1-0.7,0.2-1,0.4c-0.8,0.3-1.1,1.1-0.9,1.9c0.2,0.6,0.8,1,1.4,1c0.2,0,0.3,0,0.5-0.1c1.3-0.5,2.7-0.9,4-1.3
			c0.8-0.2,1.2-1,1-1.8C377.6,196.7,377,196.3,376.4,196.3 M368.3,199.2c-0.2,0-0.4,0-0.5,0.1c-0.2,0.1-0.3,0.1-0.5,0.2l0,0
			c0,0,0,0,0,0c0,0,0,0,0,0c0,0,0,0,0,0c0,0,0,0,0,0c0,0,0,0,0,0c0,0,0,0,0,0c0,0,0,0,0,0c0,0,0,0,0,0c0,0,0,0,0,0c0,0,0,0,0,0
			c0,0,0,0,0,0c0,0,0,0,0,0c0,0,0,0,0,0c0,0,0,0,0,0l0,0c0,0,0,0,0,0c-1.1,0.5-2.1,0.9-3.2,1.4c-0.7,0.3-1,1.2-0.7,1.9
			c0.2,0.5,0.8,0.8,1.3,0.8c0.2,0,0.4,0,0.6-0.1c1.3-0.6,2.6-1.2,3.9-1.7c0.7-0.3,1.1-1.1,0.8-1.9
			C369.4,199.5,368.9,199.2,368.3,199.2 M360.5,202.8c-0.2,0-0.5,0.1-0.7,0.2c-1.3,0.7-2.6,1.4-3.8,2.1c-0.7,0.4-0.9,1.3-0.5,2
			c0.3,0.5,0.8,0.7,1.3,0.7c0.2,0,0.5-0.1,0.7-0.2c1.2-0.7,2.4-1.4,3.7-2c0.7-0.4,1-1.3,0.6-2C361.6,203,361.1,202.8,360.5,202.8
			 M353.2,207.1c-0.3,0-0.5,0.1-0.8,0.2c0,0-0.1,0.1-0.1,0.1c0,0,0,0,0,0c0,0,0,0,0,0l0,0c0,0,0,0,0,0c0,0,0,0,0,0c0,0,0,0,0,0
			c0,0,0,0,0,0c0,0,0,0,0,0c0,0,0,0,0,0c0,0,0,0,0,0c0,0,0,0,0,0l0,0c-0.3,0.2-0.6,0.4-0.8,0.6c0,0,0,0,0,0c0,0,0,0-0.1,0
			c0,0,0,0,0,0c0,0,0,0,0,0c0,0,0,0,0,0c0,0,0,0,0,0c0,0,0,0,0,0c0,0,0,0,0,0c0,0,0,0,0,0c0,0,0,0,0,0c0,0,0,0,0,0c0,0,0,0,0,0
			c0,0,0,0,0,0c0,0,0,0,0,0c0,0,0,0,0,0c0,0,0,0,0,0c0,0,0,0,0,0c0,0,0,0,0,0c0,0,0,0,0,0c0,0,0,0,0,0c0,0,0,0,0,0c0,0,0,0,0,0
			c0,0,0,0,0,0c0,0,0,0,0,0c0,0,0,0,0,0c0,0,0,0,0,0c0,0,0,0,0,0c0,0,0,0,0,0c0,0,0,0,0,0c0,0,0,0,0,0c0,0,0,0,0,0c0,0,0,0,0,0
			c0,0,0,0,0,0c-0.7,0.5-1.3,0.9-2,1.4c-0.6,0.5-0.8,1.4-0.3,2c0.3,0.4,0.7,0.6,1.2,0.6c0.3,0,0.6-0.1,0.9-0.3
			c1.1-0.8,2.3-1.6,3.5-2.4c0.7-0.4,0.9-1.3,0.4-2C354.1,207.3,353.6,207.1,353.2,207.1 M346.2,212.1c-0.3,0-0.6,0.1-0.9,0.3
			c-1.1,0.9-2.3,1.9-3.3,2.8c-0.6,0.5-0.7,1.4-0.1,2c0.3,0.3,0.7,0.5,1.1,0.5c0.3,0,0.7-0.1,1-0.4c1-0.9,2.1-1.8,3.2-2.7
			c0.6-0.5,0.7-1.4,0.2-2C347.1,212.3,346.6,212.1,346.2,212.1 M339.8,217.8c-0.4,0-0.7,0.1-1,0.4c-1,1-2.1,2.1-3.1,3.1
			c-0.5,0.6-0.5,1.5,0.1,2.1c0.3,0.3,0.6,0.4,1,0.4c0.4,0,0.8-0.2,1.1-0.5c1-1,1.9-2,3-3c0.6-0.6,0.6-1.5,0-2.1
			C340.6,218,340.2,217.8,339.8,217.8 M334,224.1c-0.4,0-0.8,0.2-1.1,0.5c-0.9,1.1-1.9,2.2-2.7,3.4c-0.5,0.6-0.4,1.5,0.3,2
			c0.3,0.2,0.6,0.3,0.9,0.3c0.4,0,0.9-0.2,1.2-0.6c0.9-1.1,1.7-2.2,2.6-3.3c0.5-0.6,0.4-1.5-0.2-2
			C334.6,224.2,334.3,224.1,334,224.1 M328.7,230.9c-0.5,0-0.9,0.2-1.2,0.6c-0.8,1.2-1.6,2.4-2.4,3.6c0,0,0,0,0,0c0,0,0,0,0,0
			c0,0,0,0,0,0c0,0,0,0,0,0c0,0,0,0,0,0c0,0,0,0,0,0c-0.4,0.7-0.2,1.6,0.5,2c0.2,0.1,0.5,0.2,0.8,0.2c0.5,0,1-0.2,1.2-0.7
			c0.7-1.2,1.5-2.4,2.3-3.5c0.5-0.7,0.3-1.6-0.4-2C329.3,231,329,230.9,328.7,230.9 M324.2,238.2c-0.5,0-1,0.3-1.3,0.7
			c-0.2,0.3-0.4,0.7-0.5,1l0,0c0,0,0,0.1-0.1,0.1l0,0c0,0,0,0.1-0.1,0.1c0,0,0,0,0,0c0,0.1-0.1,0.2-0.1,0.2v0c0,0,0,0.1-0.1,0.1l0,0
			c0,0,0,0.1-0.1,0.1c0,0,0,0,0,0c-0.4,0.7-0.7,1.4-1.1,2.1c-0.4,0.7-0.1,1.6,0.7,1.9c0.2,0.1,0.4,0.2,0.6,0.2c0.5,0,1-0.3,1.3-0.8
			c0.6-1.3,1.3-2.5,2-3.7c0.4-0.7,0.1-1.6-0.6-2C324.7,238.2,324.4,238.2,324.2,238.2 M320.4,245.8c-0.6,0-1.1,0.3-1.3,0.9
			c-0.2,0.5-0.4,1-0.6,1.4v0c0,0,0,0,0,0c0,0,0,0,0,0c0,0,0,0,0,0c0,0,0,0,0,0c0,0,0,0,0,0c0,0,0,0,0,0c0,0,0,0,0,0c0,0,0,0,0,0
			c0,0,0,0,0,0c0,0,0,0,0,0c0,0,0,0,0,0c0,0,0,0,0,0v0c0,0,0,0,0,0c0,0,0,0,0,0c-0.3,0.8-0.6,1.6-0.9,2.4c-0.3,0.7,0.1,1.6,0.8,1.9
			c0.2,0.1,0.3,0.1,0.5,0.1c0.6,0,1.1-0.4,1.4-0.9c0.5-1.3,1-2.6,1.6-3.9c0.3-0.7,0-1.6-0.7-1.9
			C320.8,245.9,320.6,245.8,320.4,245.8 M317.3,253.8c-0.6,0-1.2,0.4-1.4,1c-0.3,0.9-0.6,1.8-0.8,2.7h0c0,0,0,0,0,0.1c0,0,0,0,0,0
			l0,0v0c0,0,0,0,0,0c0,0,0,0,0,0c0,0,0,0,0,0c0,0,0,0,0,0c0,0,0,0,0,0c0,0,0,0,0,0c0,0,0,0,0,0c0,0,0,0,0,0c0,0,0,0,0,0
			c0,0,0,0,0,0c0,0,0,0,0,0c0,0,0,0,0,0l0,0c0,0,0,0,0,0c0,0,0,0,0,0c0,0,0,0,0,0c0,0,0,0,0,0c0,0,0,0,0,0c0,0,0,0,0,0c0,0,0,0,0,0
			l0,0c0,0,0,0,0,0c0,0,0,0,0,0c0,0,0,0,0,0c0,0,0,0,0,0c0,0,0,0,0,0c0,0,0,0,0,0c0,0,0,0,0,0c0,0,0,0,0,0c0,0,0,0,0,0c0,0,0,0,0,0
			c0,0,0,0,0,0c0,0,0,0,0,0c0,0,0,0,0,0c0,0,0,0,0,0c-0.1,0.2-0.1,0.5-0.2,0.7c-0.2,0.8,0.2,1.6,1,1.8c0.1,0,0.3,0.1,0.4,0.1
			c0.6,0,1.2-0.4,1.4-1.1c0.4-1.3,0.8-2.7,1.2-4c0.2-0.8-0.2-1.6-0.9-1.8C317.6,253.9,317.5,253.8,317.3,253.8 M315.1,262.1
			c-0.7,0-1.3,0.5-1.4,1.1c0,0.2-0.1,0.3-0.1,0.5l0,0c0,0,0,0,0,0c0,0,0,0,0,0l0,0c0,0,0,0,0,0c0,0,0,0,0,0c0,0,0,0,0,0c0,0,0,0,0,0
			c0,0,0,0,0,0l0,0c0,0,0,0,0,0c0,0,0,0,0,0c0,0,0,0,0,0c0,0,0,0,0,0c0,0,0,0,0,0c0,0,0,0,0,0c0,0,0,0,0,0c0,0,0,0,0,0c0,0,0,0,0,0
			l0,0c-0.2,0.8-0.3,1.7-0.5,2.6c0,0,0,0,0,0c0,0,0,0,0,0c0,0,0,0,0,0c0,0,0,0,0,0c0,0,0,0,0,0c0,0,0,0,0,0c0,0,0,0,0,0.1v0
			c0,0.2-0.1,0.5-0.1,0.7c-0.1,0.8,0.4,1.5,1.2,1.7c0.1,0,0.2,0,0.2,0c0.7,0,1.3-0.5,1.4-1.2c0.2-1.4,0.5-2.8,0.8-4.1
			c0.2-0.8-0.3-1.6-1.1-1.7C315.3,262.1,315.2,262.1,315.1,262.1 M313.6,270.5c-0.7,0-1.3,0.5-1.4,1.3c-0.1,1-0.2,1.9-0.3,2.9v0
			c0,0,0,0,0,0c0,0,0,0,0,0c0,0,0,0,0,0c0,0,0,0,0,0c0,0,0,0,0,0c0,0,0,0,0,0c0,0,0,0,0,0c0,0,0,0,0,0l0,0c0,0,0,0,0,0c0,0,0,0,0,0
			c0,0,0,0,0,0c0,0,0,0,0,0c0,0,0,0,0,0c0,0,0,0,0,0c0,0,0,0,0,0c0,0,0,0,0,0c0,0,0,0,0,0c0,0.4-0.1,0.8-0.1,1.1
			c-0.1,0.8,0.5,1.5,1.3,1.5c0,0,0.1,0,0.1,0c0.8,0,1.4-0.6,1.4-1.3c0.1-1.4,0.2-2.8,0.4-4.2c0.1-0.8-0.5-1.5-1.3-1.6
			C313.7,270.5,313.7,270.5,313.6,270.5 M313,279.1c-0.8,0-1.4,0.6-1.5,1.4c0,0,0,0,0,0c0,0,0,0,0,0c0,0,0,0,0,0l0,0c0,0,0,0,0,0
			c0,0,0,0,0,0c0,0,0,0,0,0c0,0,0,0,0,0c0,0,0,0,0,0c0,0,0,0,0,0c0,0,0,0,0,0c0,0,0,0,0,0c0,0,0,0,0,0c0,0,0,0,0,0c0,0,0,0,0,0
			c0,0,0,0,0,0c0,0,0,0,0,0v0c0,0,0,0,0,0c0,0,0,0,0,0c0,0,0,0,0,0c0,0,0,0,0,0c0,0,0,0,0,0c0,0,0,0,0,0v0c0,0,0,0,0,0v0
			c0,0.1,0,0.2,0,0.3c0,0,0,0,0,0v0c0,0,0,0,0,0v0c0,0,0,0,0,0v0l0,0c0,0,0,0,0,0v0c0,0,0,0,0,0c0,0,0,0,0,0c0,0,0,0,0,0
			c0,0,0,0,0,0c0,0,0,0,0,0c0,0,0,0,0,0v0c0,0,0,0,0,0v0c0,0,0,0,0,0c0,0,0,0,0,0c0,0,0,0,0,0c0,0,0,0,0,0c0,0,0,0,0,0c0,0,0,0,0,0
			c0,0,0,0,0,0c0,0,0,0,0,0c0,0,0,0,0,0v0c0,0,0,0,0,0v0c0,0,0,0,0,0v0c0,0.1,0,0.2,0,0.2v0c0,0,0,0,0,0v0v0c0,0,0,0,0,0
			c0,0,0,0,0,0c0,0,0,0,0,0c0,0,0,0,0,0c0,0,0,0,0,0c0,0,0,0,0,0c0,0,0,0,0,0c0,0,0,0,0,0c0,0,0,0,0,0c0,0,0,0,0,0c0,0,0,0,0,0
			c0,0,0,0,0,0c0,0,0,0,0,0c0,0,0,0,0,0c0,0,0,0,0,0c0,0,0,0,0,0c0,0,0,0,0,0c0,0,0,0,0,0c0,0,0,0,0,0c0,0,0,0,0,0v0c0,0,0,0,0,0
			c0,0,0,0,0,0c0,0,0,0,0,0v0c0,0,0,0,0,0c0,0,0,0,0,0v0c0,0,0,0,0,0v0c0,0,0,0,0,0v0c0,0,0,0,0,0v0v0v0c0,0,0,0,0,0v0v0v0v0v0v0v0
			c0,0,0,0,0,0v0v0v0c0,0,0,0,0,0v0c0,0,0,0,0,0v0c0,0,0,0,0,0v0c0,0,0,0,0,0c0,0,0,0,0,0v0c0,0,0,0,0,0c0,0,0,0,0,0c0,0,0,0,0,0
			c0,0,0,0,0,0c0,0,0,0,0,0v0c0,0,0,0,0,0c0,0,0,0,0,0c0,0,0,0,0,0c0,0,0,0,0,0c0,0,0,0.1,0,0.1v0c0,0,0,0,0,0c0,0,0,0,0,0
			c0,0,0,0,0,0v0c0,0,0,0.1,0,0.1c0,0.3,0,0.7,0,1c0,0,0,0,0,0c0,0,0,0,0,0v0c0,0,0,0,0,0c0,0,0,0,0,0c0,0,0,0,0,0c0,0,0,0,0,0
			c0,0,0,0,0,0c0,0.8,0.7,1.4,1.5,1.4c0,0,0,0,0,0c0.8,0,1.4-0.7,1.4-1.5c0-0.6,0-1.2,0-1.9c0-0.8,0-1.6,0-2.4
			C314.4,279.8,313.8,279.1,313,279.1C313,279.1,313,279.1,313,279.1 M313.1,287.7c0,0-0.1,0-0.1,0c-0.8,0.1-1.4,0.7-1.3,1.5
			c0,0.2,0,0.3,0,0.5v0c0,0,0,0,0,0c0,0,0,0,0,0c0,0,0,0,0,0c0,0,0,0,0,0c0,0,0,0,0,0c0,0,0,0,0,0c0,0,0,0,0,0c0,0,0,0,0,0
			c0,0,0,0,0,0c0,0,0,0,0,0c0,0,0,0,0,0c0,0,0,0,0,0c0,0,0,0,0,0c0,0,0,0,0,0c0,0,0,0,0,0c0,0,0,0,0,0c0,0,0,0,0,0c0,0,0,0,0,0
			c0,0,0,0,0,0c0,0,0,0,0,0c0,0,0,0,0,0c0,0,0,0,0,0c0,0,0,0,0,0c0,0,0,0,0,0c0,0,0,0,0,0c0,0,0,0,0,0c0,0,0,0,0,0c0,0,0,0,0,0
			c0,0,0,0.1,0,0.1c0,0,0,0,0,0c0,0,0,0,0,0c0,0,0,0,0,0c0,0,0,0,0,0l0,0c0,0,0,0,0,0c0,0,0,0,0,0c0,0,0,0,0,0c0,0,0,0,0,0
			c0,0,0,0,0,0c0,0,0,0,0,0c0,0,0,0,0,0c0,0,0,0,0,0l0,0c0,0,0,0,0,0l0,0c0,0,0,0,0,0c0,0,0,0,0,0c0,0,0,0,0,0c0,0,0,0,0,0
			c0,0,0,0,0,0c0,0,0,0,0,0c0,0,0,0,0,0c0,0,0,0,0,0c0,0,0,0,0,0c0,0,0,0,0,0v0c0.1,1,0.2,1.9,0.3,2.8c0.1,0.7,0.7,1.3,1.4,1.3
			c0.1,0,0.1,0,0.2,0c0.8-0.1,1.4-0.8,1.3-1.6c-0.2-1.4-0.3-2.8-0.4-4.2C314.5,288.3,313.9,287.7,313.1,287.7 M314.1,296.2
			c-0.1,0-0.2,0-0.2,0c-0.8,0.1-1.3,0.9-1.2,1.7c0.2,1,0.4,2,0.6,3.1c0,0,0,0,0,0c0,0,0,0,0,0c0,0,0,0,0,0c0,0,0,0,0,0c0,0,0,0,0,0
			c0,0,0,0,0,0c0,0,0,0,0,0c0,0,0,0,0,0c0,0,0,0,0,0c0,0,0,0,0,0c0,0,0,0,0,0c0,0,0,0,0,0c0,0,0,0,0,0c0,0,0,0,0,0c0,0,0,0,0,0
			c0,0,0,0,0,0c0,0,0,0,0,0c0,0,0,0,0,0c0,0,0,0,0,0c0,0,0,0,0,0c0,0,0,0,0,0c0,0,0,0,0,0c0,0,0,0,0,0c0,0,0,0,0,0c0,0,0,0,0,0
			c0,0,0,0,0,0c0,0,0,0,0,0c0,0,0,0,0,0c0,0,0,0,0,0c0,0,0,0,0,0c0,0,0,0,0,0c0,0,0,0,0,0c0,0,0,0,0,0c0,0,0,0,0,0c0,0,0,0,0,0
			c0,0,0,0,0,0c0,0,0,0,0,0c0,0,0,0,0,0c0,0,0,0,0,0c0,0,0,0,0,0l0,0c0,0.1,0,0.2,0.1,0.3c0,0.1,0,0.2,0.1,0.3
			c0.1,0.7,0.7,1.1,1.4,1.1c0.1,0,0.2,0,0.3,0c0.8-0.2,1.3-0.9,1.1-1.7c-0.3-1.4-0.6-2.8-0.8-4.1
			C315.5,296.7,314.8,296.2,314.1,296.2 M316,304.6c-0.1,0-0.3,0-0.4,0c-0.8,0.2-1.2,1-1,1.8c0.1,0.4,0.2,0.8,0.3,1.2c0,0,0,0,0,0
			c0,0,0,0,0,0v0c0,0,0,0,0,0v0c0,0,0,0,0,0v0c0,0,0,0,0,0c0,0,0,0,0,0l0,0c0,0,0,0,0,0c0,0,0,0,0,0c0,0,0,0,0,0c0,0,0,0,0,0
			c0,0,0,0,0,0c0,0,0,0,0,0c0,0,0,0,0,0c0,0,0,0,0,0c0,0,0,0,0,0c0,0,0,0,0,0c0,0,0,0,0,0c0,0,0,0,0,0c0,0,0,0,0,0c0,0,0,0,0,0
			c0,0,0,0,0,0c0,0,0,0,0,0c0,0,0,0,0,0c0,0,0,0,0,0c0,0,0,0,0,0l0,0c0,0.2,0.1,0.3,0.1,0.5l0,0c0,0,0,0,0,0.1c0,0,0,0,0,0
			c0,0,0,0,0,0l0,0c0,0,0,0,0,0c0,0,0,0,0,0c0,0,0,0,0,0c0,0,0,0,0,0c0,0,0,0,0,0c0,0,0,0,0,0c0,0,0,0,0,0c0,0,0,0,0,0c0,0,0,0,0,0
			c0,0,0,0,0,0c0,0,0,0,0,0c0,0,0,0,0,0c0,0,0,0,0,0c0,0,0,0,0,0c0,0,0,0,0,0c0,0,0,0,0,0c0,0,0,0,0,0c0,0,0,0,0,0c0,0,0,0,0,0
			c0,0,0,0,0,0c0,0,0,0,0,0c0,0,0,0,0,0c0,0,0,0,0,0c0,0,0,0,0,0c0,0,0,0,0,0c0,0,0,0,0,0c0,0,0,0,0,0c0,0,0,0,0,0c0,0,0,0,0,0
			c0,0,0,0,0,0c0,0,0,0,0,0c0,0,0,0,0,0c0,0,0,0,0,0c0,0,0,0,0,0c0,0,0,0,0,0c0,0,0,0,0,0c0,0,0,0,0,0c0,0,0,0,0,0c0,0,0,0,0,0
			c0,0,0,0,0,0c0,0,0,0,0,0c0,0,0,0,0,0c0,0,0,0,0,0c0,0,0,0,0,0c0,0,0,0,0,0c0,0,0,0,0,0c0,0,0,0,0,0c0,0,0,0,0,0c0,0,0,0,0,0
			c0,0,0,0,0,0c0,0,0,0,0,0c0,0,0,0,0,0c0,0,0,0,0,0c0,0,0,0,0,0c0,0,0,0,0,0c0.1,0.3,0.2,0.7,0.3,1c0.2,0.6,0.8,1,1.4,1
			c0.1,0,0.3,0,0.4-0.1c0.8-0.2,1.2-1.1,0.9-1.8c-0.4-1.3-0.8-2.7-1.2-4C317.2,305,316.6,304.6,316,304.6 M318.6,312.7
			c-0.2,0-0.3,0-0.5,0.1c-0.7,0.3-1.1,1.1-0.8,1.9c0,0.1,0.1,0.2,0.1,0.3c0,0,0,0,0,0c0,0,0,0,0,0c0,0,0,0,0,0c0,0,0,0,0,0
			c0,0,0,0,0,0c0,0,0,0,0,0c0,0,0,0,0,0c0,0,0,0,0,0l0,0c0,0,0,0,0,0c0,0,0,0,0,0c0,0,0,0,0,0c0,0,0,0,0,0c0,0,0,0,0,0c0,0,0,0,0,0
			c0,0,0,0,0,0c0,0,0,0,0,0c0,0,0,0,0,0c0,0,0,0,0,0l0,0c0,0,0,0,0,0l0,0c0.3,0.7,0.5,1.4,0.8,2l0,0c0,0,0,0,0,0l0,0c0,0,0,0,0,0
			c0,0,0,0,0,0c0,0,0,0,0,0c0,0,0,0,0,0c0,0,0,0,0,0c0,0,0,0,0,0c0,0,0,0,0,0c0,0,0,0,0,0c0,0,0,0,0,0c0,0,0,0,0,0c0,0,0,0,0,0
			c0,0,0,0,0,0c0,0,0,0,0,0c0,0,0,0,0,0c0,0,0,0,0,0c0,0,0,0,0,0c0,0,0,0,0,0c0,0,0,0,0,0c0.1,0.4,0.3,0.7,0.4,1.1
			c0.2,0.5,0.8,0.9,1.3,0.9c0.2,0,0.4,0,0.6-0.1c0.7-0.3,1.1-1.2,0.8-1.9c-0.6-1.3-1.1-2.6-1.6-3.9
			C319.7,313.1,319.2,312.7,318.6,312.7 M322,320.6c-0.2,0-0.4,0-0.6,0.1c-0.7,0.4-1,1.2-0.7,1.9c0,0,0,0,0,0c0,0,0,0,0,0
			c0,0,0,0,0,0c0,0,0,0,0,0c0,0,0,0,0,0c0,0,0,0,0,0c0,0,0,0,0,0c0,0,0,0,0,0c0,0,0,0,0,0c0,0,0,0,0,0c0,0,0,0,0,0c0,0,0,0,0,0
			c0,0,0,0,0,0c0,0,0,0,0,0c0,0,0,0,0,0c0,0,0,0,0,0c0,0,0,0,0,0c0,0,0,0,0,0c0,0,0,0.1,0.1,0.1c0.3,0.6,0.6,1.2,0.9,1.8
			c0,0,0,0,0,0c0,0,0,0,0,0c0,0,0,0,0,0c0,0,0,0,0,0c0,0,0,0,0,0c0,0,0,0,0,0c0,0,0,0,0,0c0,0,0,0,0,0c0,0,0,0,0,0c0,0,0,0,0,0
			c0,0,0,0,0,0c0,0,0,0,0,0c0,0,0,0,0,0c0,0,0,0,0,0c0.3,0.5,0.5,1,0.8,1.4c0.3,0.5,0.8,0.8,1.3,0.8c0.2,0,0.5-0.1,0.7-0.2
			c0.7-0.4,1-1.3,0.6-2c-0.7-1.2-1.3-2.5-1.9-3.7C323,320.9,322.5,320.6,322,320.6 M326.1,328.1c-0.3,0-0.5,0.1-0.8,0.2
			c-0.7,0.4-0.9,1.3-0.5,2c0.1,0.2,0.2,0.4,0.4,0.6c0,0,0,0,0,0c0,0,0,0,0,0c0,0,0,0,0,0c0,0,0,0,0,0c0,0,0,0,0,0c0,0,0,0,0,0
			c0,0,0,0,0,0c0,0,0,0,0,0c0,0,0,0,0,0c0,0,0,0,0,0c0,0,0,0,0,0c0,0,0,0,0,0c0,0,0,0,0,0c0,0,0,0,0,0c0,0,0,0,0,0c0,0,0,0,0,0
			c0,0,0,0,0,0c0,0,0,0,0,0c0,0,0,0,0,0c0,0,0,0,0,0c0,0,0,0,0,0c0,0,0,0,0,0c0.6,0.9,1.2,1.9,1.8,2.8c0.3,0.4,0.7,0.6,1.2,0.6
			c0.3,0,0.6-0.1,0.8-0.3c0.7-0.5,0.8-1.4,0.4-2c-0.8-1.2-1.6-2.3-2.3-3.5C327.1,328.3,326.6,328.1,326.1,328.1 M331,335.2
			c-0.3,0-0.6,0.1-0.9,0.3c-0.6,0.5-0.8,1.4-0.3,2c0,0,0.1,0.1,0.1,0.1c0,0,0,0,0,0.1l0,0c0,0,0,0,0,0c0,0,0,0,0,0c0,0,0,0,0,0l0,0
			c0,0,0,0,0,0c0,0,0,0,0,0c0,0,0,0,0,0c0,0,0,0,0,0c0,0,0,0,0,0c0,0,0,0,0,0c0,0,0,0,0,0c0,0,0,0,0,0c0,0,0,0,0,0c0,0,0,0,0,0
			c0,0,0,0,0,0c0,0,0,0,0,0c0,0,0,0,0,0c0,0,0,0,0,0c0,0,0,0,0,0c0,0,0,0,0,0c0,0,0,0,0,0c0,0,0,0,0,0c0,0,0,0,0,0c0,0,0,0,0,0
			c0,0,0,0,0,0c0,0,0,0,0,0c0,0,0,0,0,0c0,0,0,0,0,0c0,0,0,0,0,0c0,0,0,0,0,0c0,0,0,0,0,0c0,0,0,0,0,0c0,0,0,0,0,0c0,0,0,0,0,0.1
			l0,0c0,0,0.1,0.1,0.1,0.1c0.1,0.1,0.2,0.3,0.3,0.4c0,0,0,0,0,0c0,0,0,0,0,0c0,0,0,0,0,0c0,0,0,0,0,0c0,0,0,0,0,0c0,0,0,0,0,0
			c0,0,0,0,0,0c0,0,0,0,0,0l0,0c0,0,0,0,0,0c0,0,0,0,0,0c0,0,0,0,0,0v0c0,0,0,0,0,0c0,0,0,0,0,0c0,0,0,0,0,0c0,0,0,0,0,0
			c0,0,0,0,0,0c0,0,0,0,0,0c0,0,0,0,0,0c0,0,0,0,0,0c0,0,0,0,0,0c0,0,0,0,0,0c0,0,0,0,0,0c0,0,0,0,0,0c0,0,0,0,0,0c0,0,0,0,0,0
			c0,0,0,0,0,0c0,0,0,0,0,0c0,0,0,0,0,0c0,0,0,0,0,0c0,0,0,0,0,0c0,0,0,0,0,0c0,0,0,0,0,0c0,0,0,0,0,0c0,0,0,0,0,0c0,0,0,0,0,0
			c0,0,0,0,0,0c0,0,0,0,0,0c0,0,0,0,0,0l0,0l0,0c0,0,0,0,0,0c0,0,0,0,0,0c0,0,0,0,0,0c0,0,0,0,0,0c0,0,0,0,0,0c0,0,0,0,0,0
			c0,0,0,0,0,0c0,0,0,0,0,0c0,0,0,0,0,0c0,0,0,0,0,0c0,0,0,0,0,0c0,0,0,0,0,0c0,0,0,0,0,0c0,0,0,0,0,0c0,0,0,0,0,0c0,0,0,0,0,0
			c0,0,0,0,0,0c0,0,0,0,0,0c0,0,0,0,0,0c0,0,0,0,0,0c0,0,0,0,0,0c0,0,0,0,0,0c0,0,0,0,0,0c0,0,0,0,0,0l0,0c0,0,0,0,0,0c0,0,0,0,0,0
			c0,0,0,0,0,0c0,0,0,0,0,0c0,0,0,0,0,0c0,0,0,0,0,0c0,0,0,0,0,0c0,0,0,0,0,0c0,0,0,0,0,0c0,0,0,0,0,0c0,0,0,0,0,0c0,0,0,0,0,0
			c0,0,0,0,0,0c0,0,0,0,0,0c0,0,0,0,0,0c0,0,0,0,0,0c0,0,0,0,0,0c0,0,0,0,0,0c0,0,0,0,0,0c0,0,0,0,0,0c0,0,0,0,0,0c0,0,0,0,0,0
			c0,0,0,0,0,0c0,0,0,0,0,0l0,0l0,0c0,0,0,0,0,0c0,0,0,0,0,0h0c0,0,0,0,0,0l0,0.1v0c0,0,0,0,0,0.1c0,0,0,0,0,0
			c0.2,0.3,0.5,0.6,0.7,0.8c0.3,0.3,0.7,0.5,1.1,0.5c0.3,0,0.7-0.1,0.9-0.3c0.6-0.5,0.7-1.4,0.2-2c-0.9-1.1-1.8-2.2-2.6-3.3
			C331.8,335.4,331.4,335.2,331,335.2 M336.5,341.7c-0.4,0-0.7,0.1-1,0.4c-0.6,0.5-0.6,1.5-0.1,2c1,1.1,2,2.1,3,3.1
			c0.3,0.3,0.6,0.4,1,0.4c0.4,0,0.8-0.1,1-0.4c0.6-0.6,0.6-1.5,0-2.1c-1-1-2-2-2.9-3C337.3,341.9,336.9,341.7,336.5,341.7
			 M342.6,347.7c-0.4,0-0.8,0.2-1.1,0.5c-0.5,0.6-0.5,1.5,0.1,2c1.1,1,2.2,1.9,3.3,2.8c0.3,0.2,0.6,0.3,0.9,0.3
			c0.4,0,0.8-0.2,1.1-0.5c0.5-0.6,0.4-1.5-0.2-2c-1.1-0.9-2.2-1.8-3.2-2.7C343.3,347.9,342.9,347.7,342.6,347.7 M349.2,353.1
			c-0.4,0-0.9,0.2-1.2,0.6c-0.5,0.6-0.3,1.6,0.3,2c0.8,0.6,1.6,1.2,2.4,1.7c0,0,0,0,0.1,0l0,0c0,0,0,0,0,0l0,0c0,0,0,0,0,0
			c0,0,0,0,0,0c0,0,0,0,0,0c0,0,0,0,0,0c0,0,0,0,0,0c0,0,0,0,0,0c0,0,0,0,0,0c0,0,0,0,0,0c0,0,0,0,0,0c0,0,0,0,0,0l0,0c0,0,0,0,0,0
			c0,0,0,0,0,0c0,0,0,0,0,0c0,0,0,0,0,0c0,0,0,0,0,0c0,0,0,0,0,0c0,0,0,0,0,0c0,0,0,0,0,0c0.3,0.2,0.5,0.3,0.8,0.5
			c0.2,0.2,0.5,0.2,0.8,0.2c0.5,0,0.9-0.2,1.2-0.7c0.4-0.7,0.3-1.6-0.4-2c-1.2-0.8-2.3-1.6-3.5-2.4
			C349.8,353.2,349.5,353.1,349.2,353.1 M356.4,357.9c-0.5,0-1,0.3-1.2,0.7c-0.4,0.7-0.2,1.6,0.5,2c1.2,0.7,2.5,1.5,3.8,2.1
			c0.2,0.1,0.4,0.2,0.7,0.2c0.5,0,1-0.3,1.3-0.8c0.4-0.7,0.1-1.6-0.6-2c-1.2-0.7-2.5-1.4-3.7-2.1
			C356.9,357.9,356.6,357.9,356.4,357.9 M363.9,361.9c-0.5,0-1.1,0.3-1.3,0.8c-0.3,0.7,0,1.6,0.7,1.9c0.2,0.1,0.4,0.2,0.7,0.3
			c0,0,0,0,0,0c0,0,0,0,0,0l0,0c0,0,0,0,0,0c0,0,0,0,0,0c0,0,0,0,0,0c0,0,0,0,0,0c0,0,0,0,0,0l0,0c0,0,0,0,0,0c0,0,0,0,0,0
			c0,0,0,0,0,0c0,0,0,0,0,0c0,0,0,0,0,0c0,0,0,0,0,0c0,0,0,0,0,0c0,0,0,0,0,0c0,0,0,0,0,0c0,0,0,0,0,0c0,0,0,0,0,0c0,0,0,0,0,0
			c0,0,0,0,0,0c0,0,0,0,0,0c0,0,0,0,0,0c0,0,0,0,0,0c0,0,0,0,0,0c0,0,0,0,0,0c0,0,0,0,0,0c0,0,0,0,0,0l0,0c0,0,0,0,0,0c0,0,0,0,0,0
			c0,0,0,0,0,0c0,0,0,0,0,0c0,0,0,0,0,0c0,0,0,0,0,0c0,0,0,0,0,0c0,0,0,0,0,0c0,0,0,0,0,0c0,0,0,0,0,0c0,0,0,0,0,0c0,0,0,0,0,0
			c0,0,0,0,0,0c0,0,0,0,0,0c0,0,0,0,0,0c0,0,0,0,0,0c0,0,0,0,0,0c0,0,0,0,0,0c0,0,0,0,0,0c0,0,0,0,0,0c0,0,0,0,0,0c0,0,0,0,0,0
			c0,0,0,0,0,0c0,0,0,0,0,0c0,0,0,0,0,0c0,0,0,0,0,0c0,0,0,0,0,0c0,0,0,0,0,0c0,0,0,0,0,0c0,0,0,0,0,0c0,0,0,0,0,0c0,0,0,0,0,0h0
			c0,0,0,0,0,0l0,0c0.5,0.2,1.1,0.5,1.6,0.7l0,0c0,0,0,0,0,0c0,0,0,0,0,0c0,0,0,0,0,0c0,0,0,0,0,0c0,0,0,0,0,0l0,0c0,0,0,0,0,0
			c0,0,0,0,0,0c0,0,0,0,0,0c0,0,0,0,0,0c0,0,0,0,0,0c0,0,0,0,0,0c0,0,0,0,0,0c0,0,0,0,0,0c0,0,0,0,0,0c0,0,0,0,0,0l0,0
			c0.1,0.1,0.3,0.1,0.4,0.2c0.2,0.1,0.4,0.1,0.6,0.1c0.6,0,1.1-0.3,1.3-0.9c0.3-0.7,0-1.6-0.8-1.9c-1.3-0.5-2.6-1.1-3.9-1.7
			C364.4,361.9,364.2,361.9,363.9,361.9 M371.9,365.2c-0.6,0-1.2,0.4-1.4,1c-0.3,0.8,0.1,1.6,0.9,1.9c0.6,0.2,1.3,0.4,1.9,0.7
			c0,0,0,0,0.1,0c0,0,0,0,0,0c0.7,0.2,1.4,0.5,2.2,0.7c0.1,0,0.3,0.1,0.4,0.1c0.6,0,1.2-0.4,1.4-1c0.2-0.8-0.2-1.6-1-1.8
			c-1.3-0.4-2.7-0.9-4-1.3C372.2,365.2,372,365.2,371.9,365.2 M380.1,367.7c-0.6,0-1.2,0.4-1.4,1.1c-0.2,0.8,0.3,1.6,1.1,1.8
			c0.1,0,0.2,0,0.3,0.1h0c0,0,0,0,0,0c0,0,0,0,0,0c0,0,0,0,0,0l0,0c0,0,0,0,0,0c0,0,0,0,0,0c0,0,0,0,0,0c0,0,0,0,0,0c0,0,0,0,0,0
			l0,0c0,0,0,0,0,0c0,0,0,0,0,0c0,0,0,0,0,0c0,0,0,0,0,0c0,0,0,0,0,0c0,0,0,0,0,0c0,0,0,0,0,0c0,0,0,0,0,0c0,0,0,0,0,0c0,0,0,0,0,0
			c0,0,0,0,0,0c0,0,0,0,0,0c0,0,0,0,0,0c0,0,0,0,0,0c0,0,0,0,0,0c0,0,0,0,0,0c0,0,0,0,0,0c0,0,0,0,0,0c0,0,0,0,0,0c0,0,0,0,0,0
			c0,0,0,0,0,0c0,0,0,0,0.1,0l0,0c0.6,0.1,1.2,0.3,1.8,0.4l0,0c0,0,0,0,0,0h0c0,0,0,0,0,0c0,0,0,0,0,0c0,0,0,0,0,0c0,0,0,0,0,0
			c0,0,0,0,0,0c0,0,0,0,0,0c0,0,0,0,0,0c0,0,0,0,0,0c0,0,0,0,0,0c0,0,0,0,0,0c0,0,0,0,0,0c0,0,0,0,0,0c0,0,0,0,0,0c0,0,0,0,0,0
			c0,0,0,0,0,0c0,0,0,0,0,0c0,0,0,0,0,0c0,0,0,0,0,0c0,0,0,0,0,0c0,0,0,0,0,0c0,0,0,0,0,0c0,0,0,0,0,0c0,0,0,0,0,0c0,0,0,0,0,0
			c0,0,0,0,0,0c0,0,0,0,0,0c0,0,0,0,0,0c0,0,0,0,0,0c0,0,0,0,0,0c0.3,0.1,0.7,0.1,1,0.2c0.1,0,0.2,0,0.3,0c0.7,0,1.3-0.5,1.4-1.2
			c0.2-0.8-0.4-1.6-1.1-1.7c-1.4-0.3-2.8-0.6-4.1-0.9C380.3,367.7,380.2,367.7,380.1,367.7 M388.5,369.3c-0.7,0-1.3,0.5-1.4,1.2
			c-0.1,0.8,0.4,1.5,1.2,1.7c0.1,0,0.2,0,0.2,0l0,0h0c0.1,0,0.1,0,0.2,0c0,0,0,0,0,0c0,0,0,0,0,0c0,0,0,0,0,0c0,0,0,0,0,0
			c0,0,0,0,0,0c0,0,0,0,0,0c0,0,0,0,0,0c0,0,0,0,0,0c0,0,0,0,0,0c0,0,0,0,0,0c0,0,0,0,0,0c0,0,0,0,0,0c0,0,0,0,0,0c0,0,0,0,0,0
			c0,0,0,0,0,0c0,0,0,0,0,0c0,0,0,0,0,0c0,0,0,0,0,0c0,0,0,0,0,0c0,0,0,0,0,0c0,0,0,0,0,0c0,0,0,0,0,0c0,0,0,0,0,0c0,0,0,0,0,0
			c1.1,0.2,2.3,0.3,3.4,0.4c0,0,0.1,0,0.1,0c0.7,0,1.4-0.6,1.4-1.3c0.1-0.8-0.5-1.5-1.3-1.6c-1.4-0.1-2.8-0.3-4.2-0.5
			C388.6,369.3,388.5,369.3,388.5,369.3 M397,370.2c-0.8,0-1.4,0.6-1.4,1.4c0,0.8,0.6,1.5,1.4,1.5c0.6,0,1.3,0.1,1.9,0.1
			c0,0,0,0,0,0c0,0,0,0,0,0h0c0,0,0,0,0,0c0,0,0,0,0,0c0,0,0,0,0,0c0,0,0,0,0,0c0,0,0,0,0,0c0,0,0,0,0,0c0,0,0,0,0,0c0,0,0,0,0,0
			c0,0,0,0,0,0c0,0,0,0,0,0c0,0,0,0,0,0h0c0,0,0,0,0,0c0,0,0,0,0,0c0,0,0,0,0,0c0,0,0,0,0,0h0c0.7,0,1.4,0,2.1,0h0
			c0.8,0,1.4-0.6,1.5-1.4c0-0.8-0.6-1.5-1.4-1.5C399.9,370.3,398.5,370.3,397,370.2C397,370.2,397,370.2,397,370.2 M409.9,370
			c0,0-0.1,0-0.1,0c-1.4,0.1-2.8,0.2-4.2,0.3c-0.8,0-1.4,0.7-1.4,1.5c0,0.8,0.7,1.4,1.4,1.4c0,0,0,0,0.1,0c1.5-0.1,2.9-0.2,4.4-0.3
			c0.8-0.1,1.4-0.8,1.3-1.6C411.2,370.5,410.6,370,409.9,370 M418.3,368.8c-0.1,0-0.2,0-0.3,0c-1.4,0.3-2.8,0.5-4.2,0.7
			c-0.8,0.1-1.4,0.8-1.2,1.6c0.1,0.7,0.7,1.3,1.4,1.3c0.1,0,0.1,0,0.2,0c1.4-0.2,2.9-0.4,4.3-0.7c0.8-0.1,1.3-0.9,1.2-1.7
			C419.6,369.3,419,368.8,418.3,368.8 M426.7,366.8c-0.1,0-0.3,0-0.4,0.1c-1.3,0.4-2.7,0.8-4.1,1.1c-0.8,0.2-1.3,1-1.1,1.8
			c0.2,0.7,0.8,1.1,1.4,1.1c0.1,0,0.2,0,0.3,0c0.1,0,0.2-0.1,0.3-0.1h0c0,0,0,0,0,0c0,0,0,0,0,0c0,0,0,0,0,0c0,0,0,0,0,0
			c0,0,0,0,0,0c0,0,0,0,0,0c0,0,0,0,0,0c0,0,0,0,0,0c0,0,0,0,0,0c0,0,0,0,0,0c0,0,0,0,0,0c0,0,0,0,0,0c0,0,0,0,0,0c0,0,0,0,0,0
			c0,0,0,0,0,0c0,0,0,0,0,0c0,0,0,0,0,0l0,0c0,0,0,0,0,0c0,0,0,0,0,0c0,0,0,0,0,0c0,0,0,0,0,0c0,0,0,0,0,0c0,0,0,0,0,0c0,0,0,0,0,0
			c0,0,0,0,0,0c0,0,0,0,0,0c0,0,0,0,0,0c0,0,0,0,0,0c0,0,0,0,0,0c0,0,0,0,0,0c0,0,0,0,0,0c0,0,0,0,0,0c0,0,0,0,0,0c0,0,0,0,0,0
			c0,0,0,0,0,0c0,0,0,0,0,0c0,0,0,0,0,0c0,0,0,0,0,0c0,0,0,0,0,0c0,0,0,0,0,0l0,0c0,0,0,0,0,0l0,0l0,0c0,0,0,0,0,0c0,0,0,0,0,0
			c0,0,0,0,0,0c0,0,0,0,0,0c0,0,0,0,0,0l0,0c0,0,0,0,0,0c0,0,0,0,0,0c0,0,0,0,0,0c0,0,0,0,0,0c0,0,0,0,0,0c0,0,0,0,0,0c0,0,0,0,0,0
			c0,0,0,0,0,0c0,0,0,0,0,0l0,0c0,0,0,0,0,0c0,0,0,0,0,0c0,0,0,0,0,0c0,0,0,0,0,0c0,0,0,0,0,0c0,0,0,0,0,0c0,0,0,0,0,0c0,0,0,0,0,0
			c0,0,0,0,0,0c0,0,0,0,0,0c0,0,0,0,0,0c0,0,0,0,0,0c0,0,0,0,0,0c0,0,0,0,0,0c0,0,0,0,0,0c0,0,0,0,0,0c0,0,0,0,0,0c0,0,0,0,0,0
			c0,0,0,0,0,0c0,0,0,0,0,0c0,0,0,0,0,0c0,0,0,0,0,0c0,0,0,0,0,0c0,0,0,0,0,0c0,0,0,0,0,0c0,0,0,0,0,0c0,0,0,0,0,0c0,0,0,0,0,0
			c0,0,0,0,0,0c0,0,0,0,0,0c0,0,0,0,0,0c0,0,0,0,0,0c0,0,0,0,0,0c0,0,0,0,0,0c0,0,0,0,0,0c0,0,0,0,0,0c0,0,0,0,0,0c0,0,0,0,0,0
			c0,0,0,0,0,0c0,0,0,0,0,0c0,0,0,0,0,0c0,0,0,0,0,0c0,0,0,0,0,0c0,0,0,0,0,0c0,0,0,0,0,0c0,0,0,0,0,0c0.1,0,0.1,0,0.2,0
			c0,0,0,0,0,0c0,0,0,0,0,0c0,0,0,0,0,0c0,0,0,0,0,0c0,0,0,0,0,0c0,0,0,0,0,0c0,0,0,0,0,0c0,0,0,0,0,0c0,0,0,0,0,0c0,0,0,0,0,0
			c0,0,0,0,0,0c0,0,0,0,0,0c0,0,0,0,0,0c0,0,0,0,0,0c0,0,0,0,0,0c0,0,0,0,0,0c0,0,0,0,0,0c0,0,0,0,0,0c0,0,0,0,0,0c0,0,0,0,0,0
			c0,0,0,0,0,0c0,0,0,0,0,0c0,0,0,0,0,0c0,0,0,0,0,0c0,0,0,0,0,0c0,0,0,0,0,0c0,0,0,0,0,0c0,0,0,0,0,0c0,0,0,0,0,0c0,0,0,0,0,0
			c0,0,0,0,0,0c0,0,0,0,0,0l0,0c0,0,0,0,0,0l0,0c0,0,0,0,0,0c0,0,0,0,0,0c0,0,0,0,0,0h0c0,0,0,0,0,0l0,0c0,0,0,0,0,0c0,0,0,0,0,0
			c0,0,0,0,0,0c0,0,0,0,0,0c0.4-0.1,0.8-0.2,1.2-0.3c0.8-0.2,1.2-1,1-1.8C427.9,367.2,427.3,366.8,426.7,366.8 M434.8,364
			c-0.2,0-0.4,0-0.5,0.1c-1.3,0.5-2.6,1-4,1.5c-0.8,0.3-1.2,1.1-0.9,1.8c0.2,0.6,0.8,1,1.4,1c0.2,0,0.3,0,0.5-0.1
			c0.3-0.1,0.6-0.2,0.9-0.3c0,0,0,0,0,0c0,0,0,0,0,0l0,0c0,0,0,0,0,0l0,0c0,0,0,0,0,0c0,0,0,0,0,0c0,0,0,0,0,0c0,0,0,0,0,0
			c0,0,0,0,0,0c0,0,0,0,0,0c0,0,0,0,0,0c0,0,0,0,0,0c0,0,0,0,0,0c0,0,0,0,0,0c0,0,0,0,0,0c0,0,0,0,0,0c0,0,0,0,0,0c0,0,0,0,0,0
			c0,0,0,0,0,0c0,0,0,0,0,0c0,0,0,0,0,0c0,0,0,0,0,0c0,0,0,0,0,0c0,0,0,0,0,0c0,0,0,0,0,0l0,0c0,0,0,0,0,0c0,0,0,0,0,0c0,0,0,0,0,0
			c0,0,0,0,0,0c0,0,0,0,0,0l0,0c0.9-0.3,1.8-0.7,2.7-1c0.7-0.3,1.1-1.1,0.8-1.9C435.9,364.3,435.4,364,434.8,364 M442.6,360.4
			c-0.2,0-0.5,0.1-0.7,0.2c-1.2,0.6-2.5,1.3-3.8,1.8c-0.7,0.3-1,1.2-0.7,1.9c0.2,0.5,0.8,0.8,1.3,0.8c0.2,0,0.4,0,0.6-0.1
			c0.1,0,0.1-0.1,0.2-0.1l0,0c0,0,0,0,0,0c0,0,0,0,0,0c0,0,0,0,0,0c0,0,0,0,0,0c0,0,0,0,0,0c0,0,0,0,0,0c0,0,0,0,0,0c0,0,0,0,0,0
			c0,0,0,0,0,0c0,0,0,0,0,0c0,0,0,0,0,0c0,0,0,0,0,0c0,0,0,0,0,0c0,0,0,0,0,0c0,0,0,0,0,0c0,0,0,0,0,0c0,0,0,0,0,0c0,0,0,0,0,0
			c0,0,0,0,0,0c0,0,0,0,0,0v0c0,0,0,0,0,0l0,0c0.4-0.2,0.7-0.3,1-0.5c0,0,0,0,0,0c0,0,0,0,0.1,0h0l0,0c0.8-0.4,1.5-0.7,2.2-1.1
			c0.7-0.4,1-1.2,0.6-2C443.6,360.7,443.1,360.4,442.6,360.4 M450,356.1c-0.3,0-0.5,0.1-0.8,0.2c-1.2,0.8-2.4,1.5-3.6,2.2
			c-0.7,0.4-0.9,1.3-0.5,2c0.3,0.5,0.8,0.7,1.3,0.7c0.2,0,0.5-0.1,0.7-0.2c0.5-0.3,1-0.6,1.5-0.9c0,0,0,0,0,0c0,0,0,0,0,0h0
			c0,0,0,0,0,0c0,0,0,0,0,0c0,0,0,0,0,0c0,0,0,0,0,0c0,0,0,0,0,0c0,0,0,0,0,0c0,0,0,0,0,0c0,0,0,0,0,0c0,0,0,0,0,0l0,0c0,0,0,0,0,0
			l0,0c0,0,0,0,0,0c0,0,0,0,0,0c0,0,0,0,0,0c0,0,0,0,0,0c0,0,0,0,0,0c0,0,0,0,0,0c0,0,0,0,0,0l0,0c0,0,0,0,0,0l0,0c0,0,0,0,0,0
			c0,0,0,0,0,0l0,0c0,0,0,0,0,0c0,0,0,0,0,0c0,0,0,0,0,0c0,0,0,0,0,0c0,0,0,0,0,0c0,0,0,0,0,0c0,0,0,0,0,0c0,0,0,0,0,0c0,0,0,0,0,0
			l0,0c0,0,0,0,0,0c0,0,0,0,0,0c0,0,0,0,0,0c0,0,0,0,0,0c0,0,0,0,0,0l0,0c0,0,0,0,0,0c0,0,0,0,0,0c0,0,0,0,0,0c0,0,0,0,0,0
			c0,0,0,0,0,0c0,0,0,0,0,0c0,0,0,0,0,0c0,0,0,0,0,0c0,0,0,0,0,0c0,0,0,0,0,0c0,0,0,0,0,0c0,0,0,0,0,0c0,0,0,0,0,0c0,0,0,0,0,0
			c0,0,0,0,0,0c0,0,0,0,0,0c0,0,0,0,0,0c0,0,0,0,0,0c0,0,0,0,0,0c0,0,0,0,0,0c0,0,0,0,0,0c0,0,0,0,0,0c0,0,0,0,0,0c0,0,0,0,0,0
			c0,0,0,0,0,0c0,0,0,0,0,0c0,0,0,0,0,0c0,0,0,0,0,0c0,0,0,0,0,0c0,0,0,0,0,0c0,0,0,0,0,0l0,0c0,0,0,0,0,0c0,0,0,0,0,0c0,0,0,0,0,0
			c0,0,0,0,0,0c0,0,0,0,0,0c0,0,0,0,0,0c0,0,0,0,0,0c0,0,0,0,0,0c0,0,0,0,0,0c0,0,0,0,0,0c0,0,0,0,0,0l0,0c0,0,0,0,0.1,0
			c0,0,0,0,0,0c0,0,0.1,0,0.1-0.1v0c0.3-0.2,0.5-0.3,0.8-0.5c0.7-0.4,0.9-1.3,0.4-2C450.9,356.4,450.5,356.1,450,356.1 M456.9,351.1
			c-0.3,0-0.6,0.1-0.9,0.3c-1.1,0.9-2.2,1.7-3.4,2.5c-0.7,0.5-0.8,1.4-0.3,2c0.3,0.4,0.7,0.6,1.2,0.6c0.3,0,0.6-0.1,0.8-0.3
			c0.3-0.2,0.5-0.4,0.8-0.5c0,0,0,0,0,0c0,0,0,0,0,0c0,0,0,0,0,0c0,0,0,0,0,0c0,0,0,0,0,0c0,0,0,0,0,0c0,0,0,0,0,0c0,0,0,0,0,0
			c0,0,0,0,0,0c0,0,0,0,0,0c0,0,0,0,0,0c0,0,0,0,0,0l0,0c0,0,0,0,0,0l0,0l0,0c0.8-0.6,1.6-1.2,2.3-1.8c0,0,0,0,0,0c0,0,0,0,0,0
			c0,0,0,0,0,0c0,0,0,0,0,0c0,0,0.1-0.1,0.1-0.1c0.6-0.5,0.7-1.4,0.2-2C457.8,351.3,457.4,351.1,456.9,351.1 M463.4,345.5
			c-0.4,0-0.7,0.1-1,0.4c-1,1-2.1,1.9-3.1,2.9c-0.6,0.5-0.7,1.4-0.1,2c0.3,0.3,0.7,0.5,1.1,0.5c0.3,0,0.7-0.1,1-0.4
			c1-0.9,2-1.8,3-2.8c0,0,0,0,0,0c0,0,0,0,0,0c0,0,0,0,0,0c0,0,0,0,0,0c0,0,0,0,0,0c0,0,0,0,0,0c0,0,0,0,0,0c0,0,0,0,0,0l0,0
			c0,0,0,0,0,0c0,0,0,0,0,0c0,0,0,0,0,0c0,0,0,0,0,0c0,0,0,0,0,0c0,0,0,0,0,0c0,0,0,0,0,0c0.6-0.6,0.6-1.5,0-2.1
			C464.2,345.6,463.8,345.5,463.4,345.5 M469.3,339.3c-0.4,0-0.8,0.2-1.1,0.5c-0.9,1.1-1.9,2.1-2.8,3.1c-0.6,0.6-0.5,1.5,0.1,2.1
			c0.3,0.3,0.6,0.4,1,0.4c0.4,0,0.8-0.2,1.1-0.5c0.6-0.6,1.1-1.2,1.7-1.8c0,0,0,0,0,0c0,0,0,0,0,0c0,0,0,0,0,0c0,0,0,0,0,0
			c0,0,0,0,0,0c0,0,0,0,0,0c0,0,0,0,0,0c0,0,0,0,0,0c0,0,0,0,0,0c0,0,0,0,0,0c0,0,0,0,0,0c0,0,0,0,0,0c0,0,0,0,0,0c0,0,0,0,0,0
			c0,0,0,0,0,0c0,0,0,0,0,0c0,0,0,0,0,0c0,0,0,0,0,0c0,0,0,0,0,0c0,0,0,0,0,0c0,0,0,0,0,0c0,0,0,0,0,0c0,0,0,0,0,0c0,0,0,0,0,0
			c0,0,0,0,0,0c0,0,0,0,0,0c0,0,0,0,0,0c0,0,0,0,0,0c0,0,0,0,0,0c0,0,0,0,0,0c0,0,0,0,0,0c0,0,0,0,0,0c0,0,0,0,0,0c0,0,0,0,0,0
			c0,0,0,0,0,0c0,0,0,0,0,0c0,0,0,0,0,0c0,0,0,0,0,0c0,0,0,0,0,0c0,0,0,0,0,0c0,0,0,0,0,0c0,0,0,0,0,0c0,0,0,0,0,0c0,0,0,0,0,0
			c0,0,0,0,0,0c0,0,0,0,0,0c0,0,0,0,0,0c0,0,0,0,0,0c0,0,0,0,0,0c0,0,0,0,0,0c0,0,0,0,0,0c0,0,0,0,0,0c0,0,0,0,0,0c0,0,0,0,0,0
			c0,0,0,0,0,0c0,0,0,0,0,0c0,0,0,0,0,0c0,0,0,0,0,0l0,0c0,0,0,0,0,0c0,0,0,0,0,0c0,0,0,0,0,0c0,0,0,0,0,0l0,0c0,0,0,0,0,0l0,0
			c0,0,0,0,0,0l0,0c0,0,0,0,0,0c0,0,0,0,0,0c0,0,0,0,0,0c0,0,0,0,0,0c0,0,0,0,0,0c0,0,0,0,0,0c0,0,0,0,0,0c0,0,0,0,0,0c0,0,0,0,0,0
			c0,0,0,0,0,0c0,0,0,0,0,0l0,0c0,0,0,0,0,0c0,0,0,0,0,0c0,0,0,0,0,0c0,0,0,0,0,0c0,0,0,0,0,0c0,0,0,0,0,0c0,0,0,0,0,0c0,0,0,0,0,0
			c0,0,0,0,0,0c0,0,0,0,0,0c0,0,0,0,0,0c0,0,0,0,0,0c0,0,0,0,0,0c0,0,0,0,0,0c0,0,0,0,0,0c0,0,0,0,0,0c0,0,0,0,0,0c0,0,0,0,0,0
			c0,0,0,0,0,0c0,0,0,0,0,0c0,0,0,0,0,0c0,0,0,0,0,0c0,0,0,0,0,0c0,0,0,0,0,0l0,0c0,0,0,0,0.1-0.1c0.5-0.6,0.4-1.5-0.2-2
			C470,339.4,469.6,339.3,469.3,339.3 M474.5,332.5c-0.5,0-0.9,0.2-1.2,0.6c-0.8,1.1-1.6,2.3-2.5,3.4c-0.5,0.6-0.4,1.5,0.3,2
			c0.3,0.2,0.6,0.3,0.9,0.3c0.4,0,0.9-0.2,1.1-0.6c0,0,0,0,0,0c0,0,0,0,0,0c0,0,0,0,0,0c0,0,0,0,0,0c0,0,0,0,0,0c0,0,0,0,0,0
			c0,0,0,0,0,0c0,0,0,0,0,0c0,0,0,0,0,0c0,0,0,0,0,0c0,0,0,0,0,0c0,0,0,0,0,0c0,0,0,0,0,0c0,0,0,0,0,0c0,0,0,0,0,0c0,0,0,0,0,0
			c0,0,0,0,0,0c0,0,0,0,0,0c0,0,0,0,0,0c0,0,0,0,0,0c0,0,0,0,0,0c0,0,0,0,0,0c0,0,0,0,0,0l0,0c0,0,0,0,0,0c0,0,0,0,0,0c0,0,0,0,0,0
			c0,0,0,0,0,0c0,0,0,0,0,0l0,0c0,0,0,0,0,0c0,0,0,0,0,0c0,0,0,0,0,0c0,0,0,0,0,0c0,0,0,0,0,0c0,0,0,0,0,0c0,0,0,0,0,0c0,0,0,0,0,0
			c0,0,0,0,0,0c0,0,0,0,0,0c0,0,0,0,0,0c0,0,0,0,0,0c0,0,0,0,0,0l0,0c0,0,0,0,0,0c0,0,0,0,0,0c0,0,0,0,0,0c0,0,0,0,0,0c0,0,0,0,0,0
			c0,0,0,0,0,0c0,0,0,0,0,0c0,0,0,0,0,0c0,0,0,0,0,0c0,0,0,0,0,0c0,0,0,0,0,0c0,0,0,0,0,0c0,0,0,0,0,0c0,0,0,0,0,0c0,0,0,0,0,0
			c0,0,0,0,0,0c0,0,0,0,0,0c0,0,0,0,0,0c0,0,0,0,0,0c0,0,0,0,0,0c0,0,0,0,0,0l0,0c0,0,0,0,0,0c0,0,0,0,0,0c0,0,0,0,0,0l0,0
			c0,0,0,0,0,0c0,0,0,0,0,0c0,0,0,0,0,0c0,0,0,0,0,0c0,0,0,0,0,0c0,0,0,0,0,0c0,0,0,0,0,0c0,0,0,0,0,0c0,0,0,0,0,0c0,0,0,0,0,0
			c0,0,0,0,0,0c0,0,0,0,0,0c0,0,0,0,0,0l0,0c0,0,0,0,0,0c0,0,0,0,0,0c0,0,0,0,0,0c0,0,0,0,0,0c0,0,0,0,0,0c0,0,0,0,0,0c0,0,0,0,0,0
			c0,0,0,0,0,0c0,0,0,0,0,0c0,0,0,0,0,0c0,0,0,0,0,0l0,0c0,0,0,0,0,0c0,0,0,0,0,0c0,0,0,0,0,0c0,0,0,0,0,0c0,0,0,0,0,0c0,0,0,0,0,0
			c0,0,0,0,0,0c0,0,0,0,0,0c0,0,0,0,0,0v0c0.4-0.6,0.8-1.1,1.2-1.7c0,0,0,0,0,0c0,0,0,0,0,0c0,0,0,0,0,0c0,0,0,0,0,0c0,0,0,0,0,0
			c0,0,0,0,0,0c0,0,0,0,0,0c0,0,0,0,0,0l0,0c0,0,0,0,0,0c0,0,0,0,0,0c0,0,0,0,0,0c0,0,0,0,0,0c0,0,0,0,0,0c0.1-0.1,0.1-0.1,0.2-0.2
			c0.5-0.7,0.3-1.6-0.4-2C475.1,332.6,474.8,332.5,474.5,332.5 M479.1,325.2c-0.5,0-1,0.3-1.3,0.7c-0.7,1.2-1.4,2.4-2.2,3.6
			c-0.4,0.7-0.2,1.6,0.5,2c0.2,0.2,0.5,0.2,0.8,0.2c0.5,0,0.9-0.2,1.2-0.7c0.2-0.3,0.4-0.6,0.6-1c0,0,0,0,0,0c0,0,0,0,0,0
			c0,0,0,0,0,0c0,0,0,0,0,0c0.4-0.7,0.8-1.4,1.3-2.1c0.1-0.2,0.3-0.4,0.4-0.7c0.4-0.7,0.1-1.6-0.6-2
			C479.6,325.3,479.4,325.2,479.1,325.2 M483,317.6c-0.6,0-1.1,0.3-1.3,0.9c-0.6,1.3-1.2,2.6-1.8,3.8c-0.4,0.7-0.1,1.6,0.6,2
			c0.2,0.1,0.4,0.2,0.7,0.2c0.5,0,1-0.3,1.3-0.8l0,0c0,0,0,0,0,0c0,0,0,0,0,0c0,0,0,0,0,0c0,0,0,0,0,0c0,0,0,0,0,0c0,0,0,0,0,0
			c0,0,0,0,0,0l0,0c0,0,0,0,0,0c0,0,0,0,0,0c0,0,0,0,0,0c0,0,0,0,0,0c0,0,0,0,0,0c0,0,0,0,0,0c0,0,0,0,0,0c0,0,0,0,0,0c0,0,0,0,0,0
			c0,0,0,0,0,0c0,0,0,0,0,0c0,0,0,0,0,0c0,0,0,0,0,0c0,0,0,0,0,0l0,0c0,0,0,0,0,0c0.3-0.6,0.6-1.3,0.9-2v0c0,0,0,0,0-0.1
			c0,0,0,0,0,0v0c0,0,0,0,0,0l0,0c0,0,0,0,0-0.1v0c0,0,0,0,0,0l0,0c0,0,0,0,0,0c0,0,0,0,0,0c0,0,0,0,0,0l0,0c0,0,0,0,0,0
			c0,0,0,0,0,0l0,0c0,0,0,0,0,0c0,0,0,0,0,0c0,0,0,0,0,0c0,0,0,0,0,0c0,0,0,0,0,0l0,0c0,0,0,0,0,0c0,0,0,0,0,0c0,0,0,0,0,0
			c0,0,0,0,0,0c0,0,0,0,0,0c0,0,0,0,0,0c0,0,0,0,0,0c0,0,0,0,0,0c0,0,0,0,0,0l0,0c0,0,0,0,0-0.1c0,0,0,0,0,0c0,0,0,0,0,0
			c0,0,0,0,0,0c0,0,0,0,0,0c0,0,0,0,0,0c0.1-0.3,0.3-0.6,0.4-0.9c0.3-0.7,0-1.6-0.7-1.9C483.4,317.6,483.2,317.6,483,317.6
			 M486.1,309.6c-0.6,0-1.2,0.4-1.4,1c-0.4,1.3-0.9,2.7-1.4,4c-0.3,0.7,0.1,1.6,0.8,1.9c0.2,0.1,0.4,0.1,0.5,0.1
			c0.6,0,1.1-0.4,1.4-0.9c0,0,0,0,0,0c0,0,0,0,0,0c0,0,0,0,0,0c0,0,0,0,0,0c0,0,0,0,0,0c0,0,0,0,0,0c0,0,0,0,0,0c0,0,0,0,0,0
			c0,0,0,0,0,0c0,0,0,0,0,0c0,0,0,0,0,0c0.5-1.3,1-2.6,1.4-3.9c0.2-0.8-0.2-1.6-0.9-1.8C486.4,309.6,486.2,309.6,486.1,309.6
			 M488.4,301.3c-0.7,0-1.3,0.5-1.4,1.1c-0.3,1.4-0.7,2.7-1,4.1c-0.2,0.8,0.2,1.6,1,1.8c0.1,0,0.3,0.1,0.4,0.1
			c0.6,0,1.2-0.4,1.4-1.1c0.4-1.4,0.7-2.8,1.1-4.2c0.2-0.8-0.3-1.6-1.1-1.7C488.6,301.4,488.5,301.3,488.4,301.3 M489.9,292.9
			c-0.7,0-1.3,0.5-1.4,1.3c-0.2,1.4-0.4,2.8-0.6,4.2c-0.1,0.8,0.4,1.5,1.2,1.7c0.1,0,0.2,0,0.3,0c0.7,0,1.3-0.5,1.4-1.2
			c0.3-1.4,0.5-2.9,0.7-4.3c0.1-0.8-0.5-1.5-1.3-1.6C490,292.9,490,292.9,489.9,292.9 M490.6,284.4c-0.8,0-1.4,0.6-1.5,1.4
			c0,1.4-0.1,2.8-0.2,4.2c-0.1,0.8,0.5,1.5,1.3,1.6c0,0,0.1,0,0.1,0c0.7,0,1.4-0.6,1.4-1.3c0.1-1.4,0.2-2.9,0.2-4.4
			C492.1,285.1,491.4,284.4,490.6,284.4C490.6,284.4,490.6,284.4,490.6,284.4 M490.4,275.8C490.4,275.8,490.4,275.8,490.4,275.8
			c-0.9,0.1-1.5,0.7-1.5,1.5c0.1,1.4,0.1,2.8,0.2,4.2c0,0.8,0.7,1.4,1.5,1.4c0,0,0,0,0,0c0.8,0,1.4-0.7,1.4-1.5c0-0.1,0-0.2,0-0.2
			c0,0,0,0,0,0c0,0,0,0,0,0c0,0,0,0,0,0c0,0,0,0,0,0c0,0,0,0,0,0c0,0,0,0,0,0c0,0,0,0,0,0c0,0,0,0,0,0c0,0,0,0,0,0v0c0,0,0,0,0,0v0
			c0-1.3-0.1-2.5-0.2-3.8c0,0,0,0,0,0c0,0,0,0,0,0c0,0,0,0,0,0c0,0,0,0,0,0c0,0,0,0,0,0c0,0,0,0,0,0c0,0,0,0,0,0c0,0,0,0,0,0
			c0,0,0,0,0,0C491.8,276.4,491.2,275.8,490.4,275.8 M489.5,267.3c-0.1,0-0.2,0-0.2,0c-0.8,0.1-1.3,0.9-1.2,1.7
			c0.2,1.4,0.4,2.8,0.6,4.2c0.1,0.7,0.7,1.3,1.4,1.3c0.1,0,0.1,0,0.2,0c0.8-0.1,1.4-0.8,1.3-1.6c0-0.2,0-0.3-0.1-0.5v0c0,0,0,0,0,0
			v0c0,0,0,0,0,0c0,0,0,0,0,0c0,0,0,0,0,0c0,0,0,0,0,0c0,0,0,0,0,0c0,0,0,0,0,0c0,0,0,0,0,0c0,0,0,0,0,0c0,0,0,0,0,0c0,0,0,0,0,0
			c0,0,0,0,0,0c0,0,0,0,0,0c0,0,0,0,0,0c0,0,0,0,0,0c0,0,0,0,0,0c0,0,0,0,0,0c0,0,0,0,0,0c0-0.1,0-0.2,0-0.3l0,0c0,0,0,0,0,0v0
			c0,0,0,0,0,0v0c0,0,0,0,0,0c0,0,0,0,0,0c0,0,0,0,0,0c0,0,0,0,0,0c0,0,0,0,0,0c0,0,0,0,0,0c0,0,0,0,0,0c0,0,0,0,0,0c0,0,0,0,0,0
			c0,0,0,0,0,0c0,0,0,0,0,0v0c0,0,0,0,0,0c0,0,0,0,0,0c0,0,0,0,0,0c0,0,0,0,0,0c0,0,0,0,0,0c0,0,0,0,0,0c0,0,0,0,0,0v0c0,0,0,0,0,0
			l0,0c0-0.1,0-0.1,0-0.2c0,0,0,0,0,0c0,0,0,0,0,0c0,0,0,0,0,0c0,0,0,0,0,0c0,0,0,0,0,0c0,0,0,0,0,0c0,0,0,0,0,0c0,0,0,0,0,0
			c0,0,0,0,0,0c0,0,0,0,0,0c0,0,0,0,0,0c0,0,0,0,0,0c0,0,0,0,0,0c0,0,0,0,0,0c0,0,0,0,0,0c0,0,0,0,0,0c0,0,0,0,0,0c0,0,0,0,0,0
			c0,0,0,0,0,0c0,0,0,0,0,0c0,0,0,0,0,0c0,0,0,0,0,0c0,0,0,0,0,0c0,0,0,0,0,0c0,0,0,0,0,0v0c-0.1-0.7-0.2-1.4-0.3-2.1
			C490.8,267.8,490.2,267.3,489.5,267.3 M487.7,258.9c-0.1,0-0.2,0-0.4,0c-0.8,0.2-1.2,1-1,1.8c0.4,1.4,0.7,2.7,1,4.1
			c0.1,0.7,0.7,1.2,1.4,1.2c0.1,0,0.2,0,0.3,0c0.8-0.2,1.3-0.9,1.1-1.7c0-0.2-0.1-0.4-0.1-0.6c0,0,0,0,0,0c0,0,0,0,0,0c0,0,0,0,0,0
			c0,0,0,0,0,0c0,0,0,0,0,0c0,0,0,0,0,0c0,0,0,0,0,0c0,0,0,0,0,0c0,0,0,0,0,0c0,0,0,0,0,0c0,0,0,0,0,0c0,0,0,0,0,0l0,0c0,0,0,0,0,0
			c0,0,0,0,0,0c0,0,0,0,0,0l0,0c0,0,0,0,0,0c0,0,0,0,0,0c0,0,0,0,0,0c0,0,0,0,0,0c0,0,0,0,0,0c0,0,0,0,0,0c0,0,0,0,0,0c0,0,0,0,0,0
			c0,0,0,0,0,0c0,0,0,0,0,0c0,0,0,0,0,0c0,0,0,0,0,0c0,0,0,0,0,0c0,0,0,0,0,0c0,0,0,0,0,0c0,0,0,0,0,0c0,0,0,0,0,0c0,0,0,0,0,0
			c0,0,0,0,0,0c0,0,0,0,0,0c0,0,0,0,0,0c0,0,0,0,0,0c0,0,0,0,0,0l0,0c0,0,0,0,0,0c0,0,0,0,0,0c0,0,0,0,0,0c0,0,0,0,0,0c0,0,0,0,0,0
			c0,0,0,0,0,0c0,0,0,0,0,0l0,0c0,0,0,0,0,0c0,0,0,0,0,0c0,0,0,0,0,0c0,0,0,0,0,0c0,0,0,0,0,0c0,0,0,0,0,0c0,0,0,0,0,0v0
			c0-0.1,0-0.2-0.1-0.2v0c0,0,0,0,0,0c0,0,0,0,0,0c0,0,0,0,0,0v0c0,0,0,0,0,0c0,0,0,0,0,0c0,0,0,0,0,0c0,0,0,0,0,0c0,0,0,0,0,0
			c0,0,0,0,0,0c0,0,0,0,0,0c0,0,0,0,0,0c0,0,0,0,0,0c0,0,0,0,0,0c0,0,0,0,0,0c0,0,0,0,0,0c0,0,0,0,0,0c0,0,0,0,0,0c0,0,0,0,0,0v0
			c0,0,0,0,0,0c0,0,0,0,0,0c0,0,0,0,0,0v0c0,0,0,0,0,0c0,0,0,0,0,0c0,0,0,0,0,0c0,0,0,0,0,0c0,0,0,0,0,0l0,0c0,0,0,0,0,0l0,0
			c0,0,0,0,0,0l0,0c-0.2-0.6-0.3-1.3-0.5-1.9C489,259.3,488.4,258.9,487.7,258.9 M485.1,250.7c-0.2,0-0.3,0-0.5,0.1
			c-0.8,0.3-1.1,1.1-0.9,1.9c0.5,1.3,0.9,2.7,1.4,4c0.2,0.6,0.8,1,1.4,1c0.1,0,0.3,0,0.4-0.1c0.8-0.2,1.2-1.1,0.9-1.8
			c-0.1-0.2-0.1-0.4-0.2-0.6v0c0,0,0,0,0,0l0,0c0,0,0,0,0,0l0,0c0,0,0,0,0,0v0c0,0,0,0,0,0c0,0,0,0,0,0c0,0,0,0,0,0c0,0,0,0,0,0
			c0,0,0,0,0,0c0,0,0,0,0,0c0,0,0,0,0,0c0,0,0,0,0,0c0,0,0,0,0,0c0,0,0,0,0,0c0,0,0,0,0,0c0,0,0,0,0,0c0,0,0,0,0,0c0,0,0,0,0,0
			c0,0,0,0,0,0c0,0,0,0,0,0c0,0,0,0,0,0c0,0,0,0,0,0c0,0,0,0,0,0c0,0,0,0,0,0c0,0,0,0,0,0c0,0,0,0,0,0c0,0,0,0,0,0c0,0,0,0,0,0
			c0,0,0,0,0,0c0,0,0,0,0,0c0,0,0,0,0,0c0,0,0,0,0,0c0,0,0,0,0,0c0,0,0,0,0,0c0,0,0,0,0,0c0,0,0,0,0,0c0,0,0,0,0,0c0,0,0,0,0,0
			c0,0,0,0,0,0c0,0,0,0,0,0c0,0,0,0,0,0c0,0,0,0,0,0c0,0,0,0,0,0c0,0,0,0,0,0c0,0,0,0,0,0c0,0,0,0,0,0c0,0,0,0,0,0c0,0,0,0,0,0
			c0,0,0,0,0,0c0,0,0,0,0,0c0,0,0,0,0,0c0,0,0,0,0,0l0,0c0,0,0,0,0,0v0c0,0,0,0,0,0c0,0,0,0,0,0c0,0,0,0,0,0l0,0
			c-0.3-0.8-0.6-1.7-0.9-2.5C486.3,251.1,485.7,250.7,485.1,250.7 M481.8,242.8c-0.2,0-0.4,0-0.6,0.1c-0.7,0.3-1,1.2-0.7,1.9
			c0.6,1.3,1.2,2.6,1.7,3.8c0.2,0.6,0.8,0.9,1.3,0.9c0.2,0,0.4,0,0.6-0.1c0.7-0.3,1.1-1.2,0.8-1.9c0,0,0,0,0,0c0,0,0,0,0,0
			c0,0,0,0,0,0c0,0,0,0,0,0c0,0,0,0,0,0c0,0,0,0,0,0c0,0,0,0,0,0c0,0,0,0,0,0c0,0,0,0,0,0l0,0c0,0,0,0,0,0c0,0,0,0,0,0c0,0,0,0,0,0
			l0,0c0,0,0,0,0,0c0,0,0,0,0,0c0,0,0,0,0,0c0,0,0,0,0,0c0,0,0,0,0,0c0,0,0,0,0,0c0,0,0,0,0,0c0,0,0,0,0,0c0,0,0,0,0,0c0,0,0,0,0,0
			c0,0,0,0,0,0c0,0,0,0,0,0c0,0,0,0,0,0c0,0,0,0,0,0c0,0,0,0,0,0l0,0c0,0,0,0,0,0c0,0,0,0,0,0c0,0,0,0,0,0c0,0,0,0,0,0c0,0,0,0,0,0
			c0,0,0,0,0,0c0,0,0,0,0,0c0,0,0,0,0,0c0,0,0,0,0,0l0,0c0,0,0,0,0,0l0,0c0,0,0,0,0,0c0,0,0,0,0,0h0c-0.5-1.1-1-2.2-1.5-3.3
			C482.9,243.1,482.3,242.8,481.8,242.8 M477.7,235.3c-0.3,0-0.5,0.1-0.8,0.2c-0.7,0.4-0.9,1.3-0.5,2c0.7,1.2,1.4,2.4,2.1,3.7
			c0.3,0.5,0.8,0.8,1.3,0.8c0.2,0,0.5-0.1,0.7-0.2c0.7-0.4,1-1.3,0.6-2c-0.7-1.3-1.4-2.5-2.2-3.8
			C478.7,235.5,478.2,235.3,477.7,235.3 M472.9,228.2c-0.3,0-0.6,0.1-0.9,0.3c-0.6,0.5-0.8,1.4-0.3,2c0.8,1.1,1.7,2.3,2.4,3.4
			c0.3,0.4,0.7,0.6,1.2,0.6c0.3,0,0.6-0.1,0.8-0.3c0.7-0.5,0.8-1.4,0.4-2c-0.2-0.3-0.4-0.7-0.7-1l0,0c0,0,0,0,0,0c0,0,0,0,0,0l0,0
			c0,0,0,0,0,0c0,0,0,0,0,0c0,0,0,0,0,0c0,0,0,0,0,0c0,0,0,0,0,0c0,0,0,0,0,0c0,0,0,0,0,0c0,0,0,0,0,0c0,0,0,0,0,0c0,0,0,0,0,0
			c0,0,0,0,0,0l0,0c0,0,0,0,0,0c0,0,0,0,0,0c0,0,0,0,0,0c0,0,0,0,0,0c0,0,0,0,0,0c0,0,0,0,0,0c0,0,0,0,0,0c0,0,0,0,0,0
			c-0.5-0.7-1.1-1.5-1.6-2.2l0,0c0,0,0,0,0,0C473.8,228.4,473.3,228.2,472.9,228.2 M467.4,221.6c-0.4,0-0.7,0.1-1,0.4
			c-0.6,0.5-0.6,1.5-0.1,2.1c0.9,1,1.9,2.1,2.8,3.2c0.3,0.3,0.7,0.5,1.1,0.5c0.3,0,0.7-0.1,0.9-0.3c0.6-0.5,0.7-1.4,0.2-2
			c-0.7-0.9-1.5-1.8-2.3-2.6c0,0,0,0,0,0c0,0,0,0,0,0c0,0,0,0,0,0c0,0,0,0,0,0c0,0,0,0,0,0c0,0,0,0,0,0c0,0,0,0,0,0c0,0,0,0,0,0
			c0,0,0,0,0,0c0,0,0,0,0,0c0,0,0,0,0,0l0,0c0,0,0,0,0,0c0,0,0,0,0,0c0,0,0,0,0,0c-0.1-0.2-0.3-0.3-0.4-0.5
			C468.2,221.8,467.8,221.6,467.4,221.6 M461.3,215.6c-0.4,0-0.8,0.2-1.1,0.5c-0.5,0.6-0.5,1.5,0.1,2.1c1,0.9,2.1,1.9,3.1,2.9
			c0.3,0.3,0.7,0.4,1,0.4c0.4,0,0.7-0.1,1-0.4c0.6-0.6,0.6-1.5,0-2.1l0,0c0,0,0,0,0,0c0,0,0,0,0,0c0,0,0,0,0,0l0,0c0,0,0,0,0,0
			c0,0,0,0,0,0c0,0,0,0,0,0c0,0,0,0,0,0c0,0,0,0,0,0c0,0,0,0,0,0l0,0l0,0c0,0,0,0,0,0l0,0c0,0,0,0,0,0l0,0c-1-1-2-1.9-3-2.8
			C462,215.7,461.7,215.6,461.3,215.6 M454.7,210.1c-0.4,0-0.9,0.2-1.2,0.6c-0.5,0.6-0.3,1.6,0.3,2c1.1,0.8,2.2,1.7,3.3,2.6
			c0.3,0.2,0.6,0.3,0.9,0.3c0.4,0,0.8-0.2,1.1-0.5c0.5-0.6,0.4-1.5-0.2-2c-0.2-0.1-0.4-0.3-0.5-0.4c0,0,0,0,0,0c0,0,0,0,0,0
			c0,0,0,0,0,0c0,0,0,0,0,0c0,0,0,0,0,0c0,0,0,0,0,0c0,0,0,0,0,0c0,0,0,0,0,0c0,0,0,0,0,0c0,0,0,0,0,0c0,0,0,0,0,0c0,0,0,0,0,0
			c0,0,0,0,0,0c0,0,0,0,0,0l0,0c0,0,0,0,0,0c0,0,0,0,0,0c0,0,0,0,0,0l0,0l0,0c0,0,0,0,0,0c0,0,0,0,0,0c0,0,0,0,0,0c0,0,0,0,0,0
			c0,0,0,0,0,0c0,0,0,0,0,0c0,0,0,0,0,0c0,0,0,0,0,0c0,0,0,0,0,0c0,0,0,0,0,0c0,0,0,0,0,0c0,0,0,0,0,0l0,0c-0.2-0.2-0.4-0.4-0.7-0.5
			c0,0-0.1-0.1-0.1-0.1l0,0c-0.2-0.2-0.4-0.3-0.6-0.5l0,0c0,0-0.1-0.1-0.1-0.1c0,0,0,0,0,0c0,0,0,0-0.1,0c0,0,0,0-0.1,0c0,0,0,0,0,0
			c0,0,0,0,0,0c0,0,0,0,0,0c0,0,0,0,0,0c0,0,0,0,0,0c0,0,0,0,0,0c0,0,0,0,0,0c0,0,0,0,0,0c0,0,0,0,0,0c0,0,0,0,0,0c0,0,0,0,0,0
			c0,0,0,0,0,0c0,0,0,0,0,0c0,0,0,0,0,0c0,0,0,0,0,0c0,0,0,0,0,0c0,0,0,0,0,0c0,0,0,0,0,0c0,0,0,0,0,0c0,0,0,0,0,0c0,0,0,0,0,0
			c0,0,0,0,0,0c0,0,0,0,0,0c0,0,0,0,0,0c0,0,0,0,0,0c0,0,0,0,0,0l0,0c0,0,0,0,0,0l0,0c0,0,0,0,0,0l0,0c-0.1-0.1-0.3-0.2-0.4-0.3
			C455.3,210.2,455,210.1,454.7,210.1 M447.6,205.3c-0.5,0-1,0.2-1.2,0.7c-0.4,0.7-0.2,1.6,0.5,2c1.2,0.7,2.4,1.5,3.6,2.3
			c0.2,0.2,0.5,0.2,0.8,0.2c0.5,0,0.9-0.2,1.2-0.6c0.4-0.7,0.3-1.6-0.4-2c-0.2-0.2-0.5-0.3-0.7-0.5l0,0c0,0,0,0,0,0l0,0c0,0,0,0,0,0
			c0,0,0,0,0,0c0,0,0,0,0,0c0,0,0,0,0,0c0,0,0,0,0,0c0,0,0,0,0,0c0,0,0,0,0,0c0,0,0,0,0,0c0,0,0,0,0,0c0,0,0,0,0,0c0,0,0,0,0,0
			c0,0,0,0,0,0c0,0,0,0,0,0c0,0,0,0,0,0c0,0,0,0,0,0c0,0,0,0,0,0c0,0,0,0,0,0c0,0,0,0,0,0c0,0,0,0,0,0c0,0,0,0,0,0c0,0,0,0,0,0
			c0,0,0,0,0,0l0,0c0,0,0,0,0,0l0,0c-0.8-0.5-1.7-1.1-2.6-1.6C448.1,205.4,447.8,205.3,447.6,205.3 M440.1,201.3
			c-0.5,0-1.1,0.3-1.3,0.8c-0.3,0.7,0,1.6,0.7,1.9c1.3,0.6,2.5,1.2,3.8,1.9c0.2,0.1,0.5,0.2,0.7,0.2c0.5,0,1-0.3,1.3-0.8
			c0.4-0.7,0.1-1.6-0.6-2c-0.2-0.1-0.5-0.3-0.7-0.4v0c0,0,0,0,0,0l0,0c0,0,0,0,0,0l0,0c0,0,0,0,0,0l0,0c0,0,0,0,0,0l0,0c0,0,0,0,0,0
			l0,0c0,0,0,0,0,0l0,0c0,0,0,0,0,0c0,0,0,0,0,0c0,0,0,0,0,0c0,0,0,0,0,0c0,0,0,0,0,0c0,0,0,0,0,0c0,0,0,0,0,0c0,0,0,0,0,0
			c0,0,0,0,0,0c0,0,0,0,0,0c0,0,0,0,0,0c0,0,0,0,0,0c0,0,0,0,0,0c0,0,0,0,0,0c0,0,0,0,0,0c0,0,0,0,0,0c0,0,0,0,0,0c0,0,0,0,0,0
			c0,0,0,0,0,0c0,0,0,0,0,0c0,0,0,0,0,0c0,0,0,0,0,0c0,0,0,0,0,0c0,0,0,0,0,0c0,0,0,0,0,0c0,0,0,0,0,0c0,0,0,0,0,0c0,0,0,0,0,0
			c0,0,0,0,0,0c0,0,0,0,0,0c0,0,0,0,0,0c0,0,0,0,0,0c0,0,0,0,0,0c0,0,0,0,0,0l0,0c0,0,0,0,0,0c0,0,0,0,0,0c0,0,0,0,0,0c0,0,0,0,0,0
			c0,0,0,0,0,0c0,0,0,0,0,0c0,0,0,0,0,0c0,0,0,0,0,0c0,0,0,0,0,0c0,0,0,0,0,0c0,0,0,0,0,0c0,0,0,0,0,0c0,0,0,0,0,0c0,0,0,0,0,0
			c0,0,0,0,0,0c0,0,0,0,0,0c0,0,0,0,0,0l0,0c0,0,0,0,0,0c0,0,0,0,0,0c0,0,0,0,0,0c0,0,0,0,0,0c0,0,0,0,0,0c0,0,0,0,0,0c0,0,0,0,0,0
			c0,0,0,0,0,0c0,0,0,0,0,0c0,0,0,0,0,0c0,0,0,0,0,0c0,0,0,0,0,0c0,0,0,0,0,0c0,0,0,0,0,0c0,0,0,0,0,0c0,0,0,0,0,0c0,0,0,0,0,0
			c0,0,0,0,0,0c0,0,0,0,0,0l0,0c0,0,0,0,0,0c0,0,0,0,0,0c0,0,0,0,0,0c0,0,0,0,0,0c0,0,0,0,0,0l0,0c0,0,0,0,0,0c0,0,0,0,0,0
			c0,0,0,0,0,0c0,0,0,0,0,0c0,0,0,0,0,0c0,0,0,0,0,0l0,0c0,0,0,0,0,0c0,0,0,0,0,0l0,0c0,0,0,0,0,0c0,0,0,0,0,0c0,0,0,0,0,0
			c0,0,0,0,0,0l0,0c0,0,0,0,0,0c0,0,0,0,0,0c0,0,0,0,0,0c0,0,0,0,0,0l0,0c0,0,0,0,0,0c0,0,0,0,0,0c0,0,0,0,0,0c0,0,0,0,0,0
			c0,0,0,0,0,0c0,0,0,0,0,0c0,0,0,0,0,0c0,0,0,0,0,0c0,0,0,0,0,0c0,0,0,0,0,0c0,0,0,0,0,0c0,0,0,0,0,0l0,0c0,0,0,0,0,0
			c-0.4-0.2-0.8-0.4-1.2-0.6C440.5,201.3,440.3,201.3,440.1,201.3 M432.1,198c-0.6,0-1.2,0.4-1.4,1c-0.3,0.8,0.1,1.6,0.9,1.9
			c1.3,0.5,2.6,1,3.9,1.5c0.2,0.1,0.4,0.1,0.6,0.1c0.6,0,1.1-0.3,1.3-0.9c0.3-0.7,0-1.6-0.8-1.9c-0.4-0.2-0.8-0.3-1.1-0.5
			c0,0,0,0,0,0c0,0,0,0-0.1,0c0,0,0,0,0,0c0,0,0,0,0,0c0,0,0,0,0,0c0,0,0,0,0,0c0,0,0,0,0,0c0,0,0,0,0,0c0,0,0,0,0,0c0,0,0,0,0,0
			c0,0,0,0,0,0c0,0,0,0,0,0c0,0,0,0,0,0c0,0,0,0,0,0c0,0,0,0,0,0l0,0c0,0,0,0,0,0c0,0,0,0,0,0c0,0,0,0,0,0c0,0,0,0,0,0c0,0,0,0,0,0
			c0,0,0,0,0,0c0,0,0,0,0,0c0,0,0,0,0,0c0,0,0,0,0,0c0,0,0,0,0,0c0,0,0,0,0,0c0,0,0,0,0,0l0,0c0,0,0,0,0,0l0,0c0,0,0,0,0,0
			c0,0,0,0,0,0c0,0,0,0,0,0c0,0,0,0,0,0c0,0,0,0,0,0c0,0,0,0,0,0c0,0,0,0,0,0c0,0,0,0,0,0c0,0,0,0,0,0c0,0,0,0,0,0c0,0,0,0,0,0
			c0,0,0,0,0,0c0,0,0,0,0,0c-0.7-0.3-1.5-0.6-2.2-0.8C432.5,198,432.3,198,432.1,198 M424,195.4c-0.6,0-1.2,0.4-1.4,1.1
			c-0.2,0.8,0.3,1.6,1,1.8c1.4,0.3,2.7,0.7,4.1,1.1c0.1,0,0.3,0.1,0.4,0.1c0.6,0,1.2-0.4,1.4-1c0.2-0.8-0.2-1.6-1-1.8
			c-1.4-0.4-2.8-0.8-4.2-1.2C424.2,195.4,424.1,195.4,424,195.4 M415.6,193.7c-0.7,0-1.3,0.5-1.4,1.2c-0.1,0.8,0.4,1.5,1.2,1.7
			c1.4,0.2,2.8,0.5,4.2,0.8c0.1,0,0.2,0,0.3,0c0.7,0,1.3-0.5,1.4-1.2c0.2-0.8-0.3-1.6-1.1-1.7c-0.4-0.1-0.8-0.2-1.1-0.2c0,0,0,0,0,0
			c0,0,0,0,0,0c0,0,0,0,0,0c0,0,0,0,0,0c0,0,0,0,0,0c0,0,0,0,0,0c0,0,0,0,0,0c0,0,0,0,0,0c0,0,0,0,0,0c0,0,0,0,0,0c0,0,0,0,0,0
			c0,0,0,0,0,0c0,0,0,0,0,0c0,0,0,0,0,0c0,0,0,0,0,0c0,0,0,0,0,0c0,0,0,0,0,0c0,0,0,0,0,0c0,0,0,0,0,0c0,0,0,0,0,0c0,0,0,0,0,0
			c0,0,0,0,0,0c0,0,0,0,0,0c0,0,0,0,0,0c0,0,0,0,0,0c0,0,0,0,0,0c0,0,0,0,0,0c0,0,0,0,0,0c0,0,0,0,0,0c0,0,0,0,0,0c0,0,0,0,0,0
			c0,0,0,0,0,0c0,0,0,0,0,0c0,0,0,0,0,0l0,0c0,0,0,0,0,0c0,0,0,0,0,0c0,0,0,0,0,0c0,0,0,0,0,0c0,0,0,0,0,0c0,0,0,0,0,0
			c0,0-0.1,0-0.1,0c0,0,0,0,0,0c0,0,0,0,0,0c0,0,0,0,0,0c0,0,0,0,0,0c0,0,0,0,0,0c0,0,0,0,0,0c0,0,0,0,0,0c0,0,0,0,0,0c0,0,0,0,0,0
			c0,0,0,0,0,0c0,0,0,0,0,0c0,0,0,0,0,0l0,0c0,0,0,0,0,0c0,0,0,0,0,0c0,0,0,0,0,0c0,0,0,0,0,0c0,0,0,0,0,0l0,0c0,0,0,0,0,0
			c0,0,0,0,0,0c0,0,0,0,0,0l0,0c0,0,0,0,0,0c0,0,0,0,0,0c0,0,0,0,0,0c0,0,0,0,0,0c0,0,0,0,0,0c0,0,0,0,0,0c0,0,0,0,0,0l0,0
			c0,0,0,0,0,0c0,0,0,0,0,0c0,0,0,0,0,0c0,0,0,0,0,0c0,0,0,0,0,0c0,0,0,0,0,0c0,0,0,0,0,0c0,0,0,0,0,0c0,0,0,0,0,0c0,0,0,0,0,0
			c0,0,0,0,0,0c0,0,0,0,0,0c0,0,0,0,0,0c0,0,0,0,0,0c0,0,0,0,0,0c0,0,0,0,0,0c0,0,0,0,0,0l0,0c0,0,0,0,0,0c0,0,0,0-0.1,0
			c0,0,0,0,0,0c0,0,0,0,0,0c0,0,0,0,0,0c0,0,0,0,0,0c0,0,0,0,0,0c0,0,0,0,0,0c0,0,0,0,0,0c0,0,0,0,0,0c0,0,0,0,0,0c0,0,0,0,0,0
			c0,0,0,0,0,0c0,0,0,0,0,0c0,0,0,0,0,0c0,0,0,0,0,0c0,0,0,0,0,0c0,0,0,0,0,0c0,0,0,0,0,0c0,0,0,0,0,0c0,0,0,0,0,0c0,0,0,0,0,0
			c0,0,0,0,0,0c0,0,0,0,0,0h0c-0.3-0.1-0.7-0.1-1-0.2C415.7,193.7,415.6,193.7,415.6,193.7 M407,192.8c-0.8,0-1.4,0.6-1.4,1.4
			c0,0.8,0.6,1.5,1.4,1.5c1.4,0.1,2.8,0.2,4.2,0.3c0.1,0,0.1,0,0.2,0c0.7,0,1.4-0.6,1.4-1.3c0.1-0.8-0.5-1.5-1.3-1.6
			c-0.5-0.1-1-0.1-1.5-0.1c0,0,0,0,0,0c0,0,0,0,0,0h0c0,0,0,0,0,0l0,0c0,0,0,0,0,0h0c0,0,0,0,0,0l0,0c0,0,0,0,0,0l0,0
			C408.9,192.9,408,192.8,407,192.8C407.1,192.8,407.1,192.8,407,192.8 M401.8,192.6C401.8,192.6,401.8,192.6,401.8,192.6
			L401.8,192.6L401.8,192.6L401.8,192.6h-0.1c0,0,0,0,0,0h0h0h0c0,0,0,0,0,0h0c0,0,0,0,0,0h0c0,0,0,0,0,0c0,0,0,0,0,0h0c0,0,0,0,0,0
			h0c0,0,0,0,0,0c0,0,0,0,0,0c0,0,0,0,0,0h0c0,0,0,0,0,0h0c0,0,0,0,0,0h0c0,0-0.1,0-0.1,0h0c0,0,0,0,0,0h0c0,0,0,0,0,0h0
			c0,0,0,0,0,0c0,0,0,0,0,0c0,0,0,0,0,0c0,0,0,0,0,0c0,0,0,0,0,0h0c0,0,0,0,0,0h0c0,0,0,0,0,0c0,0,0,0,0,0c0,0,0,0,0,0
			c-0.7,0-1.4,0-2.1,0h0c0,0,0,0,0,0c0,0,0,0,0,0c0,0,0,0,0,0c0,0,0,0,0,0c0,0,0,0,0,0c0,0,0,0,0,0c0,0,0,0,0,0h0c0,0,0,0,0,0
			c0,0,0,0,0,0c0,0,0,0,0,0c0,0,0,0,0,0c0,0,0,0,0,0c0,0,0,0,0,0c0,0,0,0,0,0c0,0,0,0,0,0c0,0,0,0,0,0c0,0,0,0,0,0h0c0,0,0,0,0,0
			l0,0h0c0,0,0,0,0,0c0,0,0,0,0,0h0c-0.3,0-0.6,0-0.9,0c-0.8,0-1.4,0.7-1.4,1.5c0,0.8,0.7,1.4,1.4,1.4c0,0,0,0,0.1,0
			c1.4-0.1,2.8-0.1,4.2-0.1c0.3,0,0.6,0,1,0h0c0.8,0,1.4-0.6,1.5-1.4c0-0.8-0.6-1.5-1.4-1.5c-0.2,0-0.5,0-0.7,0c0,0-0.1,0-0.1,0h0
			c0,0,0,0,0,0h0H401.8L401.8,192.6L401.8,192.6L401.8,192.6C401.8,192.6,401.8,192.6,401.8,192.6"/>
	</g>
	<g>
		<path fill="#4D6F5A" d="M422.4,235.9c-2.7,3.4-8.7,5.2-13.3,5.9c-7.7,1.1-24.2,0.9-29.7-2.1c0.2,3.7-1.4,7.5-2.4,11
			c10.3,9.7,24.5,9,46.6,5.6c-3.1-8.2-1.4-11.5-1.4-17.4C422.2,237.8,422.3,236.8,422.4,235.9"/>
	</g>
	<g>
		<path fill="#4D6F5A" d="M423.1,232.8c2.5-7.7,9-10.3,6.9-18.6c-2.6-10.2-11.6-14.9-21.3-9.8c-6.1,3.2-7.8,5.8-11.6,7.2
			c5.5,0.7,10.2,3.3,12.9,7c-3.6-3.1-9.1-5.7-18.2-6c-1.3,0.1-2.8,0.1-4.5,0c-13.1-0.5-17.4,14.6-11.4,20.1c1.1,1,1.9,2.1,2.4,3.1
			C382.1,241.2,416.1,239.5,423.1,232.8"/>
	</g>
	<g>
		<path fill="#4D6F5A" d="M373.8,275.3v0.6v0l-5,19.3h2.7c0.4,0,0.7-0.1,0.9-0.4c0.2-0.2,0.4-0.5,0.4-0.8c0.1-0.3,0.2-0.7,0.2-1.2
			h0.8v3.1h-6.9h-0.1v-0.7h0v-0.1l5-19.3h-2.7c-0.4,0-0.7,0.1-0.9,0.4c-0.2,0.3-0.4,0.5-0.5,0.8c-0.1,0.3-0.2,0.7-0.2,1.2h-0.8v-3
			H373.8z"/>
		<path fill="#4D6F5A" d="M378.9,275.3v0.7c-0.1,0-0.3,0-0.3,0c-0.1,0-0.2,0.1-0.3,0.2c-0.1,0.1-0.1,0.3-0.1,0.6c0,0,0,0.4,0,1
			c0,0.7,0,1.5,0,2.5c0,1,0,2.1,0,3.4c0,1.2,0,2.4,0,3.5s0,2,0,2.8c0,0.8,0,1.3,0,1.4c0,1.5,0.2,2.5,0.5,3.2
			c0.3,0.6,0.8,0.9,1.4,0.9h0h0c0.6,0,1-0.3,1.4-0.9c0.3-0.6,0.5-1.7,0.5-3.2v-2.3c0-0.5,0-1,0-1.5v-10.9c0-0.3,0-0.5-0.1-0.6
			c-0.1-0.1-0.1-0.2-0.2-0.2c-0.1,0-0.2,0-0.4,0v-0.7h3.4v0.7c-0.1,0-0.2,0-0.3,0c-0.1,0-0.2,0.1-0.2,0.2c-0.1,0.1-0.1,0.3-0.1,0.6
			v15.4c0,0.6-0.1,1.2-0.4,1.7c-0.2,0.5-0.6,0.9-0.9,1.3c-0.4,0.3-0.8,0.6-1.3,0.8c-0.5,0.2-0.9,0.3-1.4,0.3c-0.5,0-0.9-0.1-1.4-0.3
			c-0.5-0.2-0.9-0.4-1.3-0.8c-0.4-0.3-0.7-0.8-0.9-1.2c-0.2-0.5-0.3-1-0.3-1.7c0-0.1,0-0.4,0-0.8s0-1.1,0-1.8s0-1.6,0-2.5
			c0-0.9,0-1.8,0-2.8c0-0.9,0-1.9,0-2.8c0-0.9,0-1.7,0-2.4c0-0.7,0-1.3,0-1.7c0-0.4,0-0.6,0-0.7c0-0.3,0-0.5-0.1-0.6
			c-0.1-0.1-0.2-0.2-0.3-0.2c-0.1,0-0.2,0-0.3,0v-0.7H378.9z"/>
		<path fill="#4D6F5A" d="M390.5,276c-0.3,0-0.6,0.1-0.9,0.2c-0.3,0.1-0.5,0.3-0.7,0.5c-0.2,0.3-0.4,0.6-0.5,1
			c-0.1,0.4-0.2,0.9-0.2,1.5c0,0.8,0,1.8,0,2.9c0,1.1,0,2.3,0,3.5c0,1.2,0,2.4,0,3.5c0,1.1,0,2.1,0,2.9c0,1.2,0.2,2.1,0.6,2.6
			c0.4,0.5,0.9,0.8,1.5,0.8c0.5,0,1-0.1,1.4-0.2c0.4-0.1,0.8-0.4,1-0.7c0.3-0.3,0.5-0.7,0.7-1.2c0.2-0.5,0.2-1.1,0.2-1.9v-0.8h0.7
			v1.5c0,1.3-0.3,2.2-1,2.9c-0.7,0.7-1.7,1-2.9,1c-0.6,0-1.2-0.1-1.8-0.4c-0.6-0.3-1.1-0.7-1.5-1.3c-0.3-0.4-0.4-0.8-0.6-1.3
			c-0.1-0.5-0.2-1.1-0.3-1.7c0-0.7-0.1-1.5-0.1-2.4c0-0.9,0-2,0-3.3c0-1.7,0-3.1,0-4.2c0-1.1,0.1-2,0.2-2.8c0.1-0.6,0.3-1.2,0.6-1.6
			c0.3-0.5,0.7-0.9,1.1-1.1c0.7-0.4,1.4-0.7,2.2-0.7c0.1,0,0.2,0,0.3,0c0.1,0,0.2,0,0.3,0l-0.1-0.1c0.1,0,0.2,0.1,0.2,0.1
			c0.4,0.1,0.8,0.2,1.1,0.3c0.3,0.1,0.5,0.3,0.7,0.3c0.2,0.1,0.3,0.1,0.4,0c0.2-0.1,0.3-0.4,0.3-0.8c0,0,0.1,0,0.1,0c0,0,0,0,0.1,0
			h0.6v5.1h-0.6c0-0.3,0-0.6-0.1-1c0-0.3-0.1-0.6-0.2-0.9c-0.1-0.3-0.2-0.6-0.3-1c0-0.1-0.1-0.2-0.2-0.4c-0.1-0.2-0.3-0.4-0.5-0.6
			c-0.2-0.2-0.5-0.3-0.8-0.5C391.3,276,390.9,276,390.5,276z"/>
		<path fill="#4D6F5A" d="M400.2,276c-0.3,0-0.6,0.1-0.9,0.2c-0.3,0.1-0.5,0.3-0.7,0.5c-0.2,0.3-0.4,0.6-0.5,1
			c-0.1,0.4-0.2,0.9-0.2,1.5c0,0.8,0,1.8,0,2.9c0,1.1,0,2.3,0,3.5c0,1.2,0,2.4,0,3.5c0,1.1,0,2.1,0,2.9c0,1.2,0.2,2.1,0.6,2.6
			c0.4,0.5,0.9,0.8,1.5,0.8c0.5,0,1-0.1,1.4-0.2c0.4-0.1,0.8-0.4,1-0.7c0.3-0.3,0.5-0.7,0.7-1.2c0.2-0.5,0.2-1.1,0.2-1.9v-0.8h0.7
			v1.5c0,1.3-0.3,2.2-1,2.9c-0.7,0.7-1.7,1-2.9,1c-0.6,0-1.2-0.1-1.8-0.4c-0.6-0.3-1.1-0.7-1.5-1.3c-0.3-0.4-0.4-0.8-0.6-1.3
			c-0.1-0.5-0.2-1.1-0.3-1.7c0-0.7-0.1-1.5-0.1-2.4c0-0.9,0-2,0-3.3c0-1.7,0-3.1,0-4.2c0-1.1,0.1-2,0.2-2.8c0.1-0.6,0.3-1.2,0.6-1.6
			c0.3-0.5,0.7-0.9,1.1-1.1c0.7-0.4,1.4-0.7,2.2-0.7c0.1,0,0.2,0,0.3,0c0.1,0,0.2,0,0.3,0l-0.1-0.1c0.1,0,0.2,0.1,0.2,0.1
			c0.4,0.1,0.8,0.2,1.1,0.3c0.3,0.1,0.5,0.3,0.7,0.3c0.2,0.1,0.3,0.1,0.4,0c0.2-0.1,0.3-0.4,0.3-0.8c0,0,0.1,0,0.1,0c0,0,0,0,0.1,0
			h0.5v5.1h-0.6c0-0.3,0-0.6-0.1-1c0-0.3-0.1-0.6-0.2-0.9c-0.1-0.3-0.2-0.6-0.3-1c0-0.1-0.1-0.2-0.2-0.4c-0.1-0.2-0.3-0.4-0.5-0.6
			c-0.2-0.2-0.5-0.3-0.8-0.5C401,276,400.6,276,400.2,276z"/>
		<path fill="#4D6F5A" d="M415.7,295.3v0.8h-3.5v-0.8c0.2,0.1,0.3,0.1,0.4,0c0.1,0,0.2-0.1,0.2-0.2c0.1-0.1,0.1-0.3,0.1-0.6V286
			h-4.4v8.5c0,0.3,0,0.5,0.1,0.6c0.1,0.1,0.2,0.2,0.2,0.2c0.1,0.1,0.2,0.1,0.4,0v0.8h-3.5v-0.8c0.2,0.1,0.3,0.1,0.3,0
			c0.1,0,0.2-0.1,0.3-0.2c0.1-0.1,0.1-0.3,0.1-0.6v-17.6c0-0.3,0-0.5-0.1-0.6c-0.1-0.1-0.2-0.2-0.3-0.2c-0.1,0-0.2,0-0.3,0v-0.7h3.5
			v0.7c-0.1,0-0.3,0-0.4,0c-0.1,0-0.2,0.1-0.2,0.2c-0.1,0.1-0.1,0.3-0.1,0.6v8.4h4.4v-8.4c0-0.3,0-0.5-0.1-0.6
			c-0.1-0.1-0.2-0.2-0.2-0.2c-0.1,0-0.2,0-0.4,0v-0.7h3.5v0.7c-0.2,0-0.3,0-0.4,0c-0.1,0-0.2,0.1-0.2,0.2c-0.1,0.1-0.1,0.3-0.1,0.6
			v17.6c0,0.3,0,0.5,0.1,0.6c0.1,0.1,0.2,0.2,0.2,0.2C415.5,295.3,415.6,295.3,415.7,295.3z"/>
		<path fill="#4D6F5A" d="M420.1,294.5c0,0.3,0,0.5,0.1,0.6c0.1,0.1,0.2,0.2,0.2,0.2c0.1,0.1,0.2,0.1,0.4,0v0.8h-3.5v-0.8
			c0.2,0.1,0.3,0.1,0.4,0c0.1,0,0.1-0.1,0.2-0.2c0.1-0.1,0.1-0.3,0.1-0.6v-17.6c0-0.3,0-0.5-0.1-0.6c-0.1-0.1-0.2-0.2-0.2-0.2
			c-0.1,0-0.3,0-0.4,0v-0.7h3.5v0.7c-0.2,0-0.3,0-0.4,0c-0.1,0-0.2,0.1-0.2,0.2c-0.1,0.1-0.1,0.3-0.1,0.6V294.5z"/>
		<path fill="#4D6F5A" d="M429.4,275.3h2.5v0.7c-0.2,0-0.3,0-0.4,0c-0.1,0-0.2,0.1-0.3,0.2c-0.1,0.1-0.1,0.3-0.1,0.6V296h-2.4
			l-4.8-16.6v15.1c0,0.3,0,0.5,0.1,0.6c0.1,0.1,0.2,0.2,0.3,0.2c0.1,0,0.3,0,0.4,0v0.8h-2.5v-0.8c0.2,0,0.3,0,0.4,0
			c0.1,0,0.2-0.1,0.3-0.2c0.1-0.1,0.1-0.3,0.1-0.6v-17.6c0-0.3,0-0.5-0.1-0.6c-0.1-0.1-0.2-0.2-0.3-0.2c-0.1,0-0.3,0-0.4,0v-0.7h3
			l5.1,17.6v-16c0-0.3,0-0.5-0.1-0.6c-0.1-0.1-0.2-0.2-0.3-0.2c-0.1,0-0.3,0-0.4,0V275.3z"/>
		<path fill="#4D6F5A" d="M436.3,294.5c0,0.3,0,0.5,0.1,0.6c0.1,0.1,0.2,0.2,0.2,0.2c0.1,0.1,0.2,0.1,0.4,0v0.8h-3.5v-0.8
			c0.2,0.1,0.3,0.1,0.4,0c0.1,0,0.1-0.1,0.2-0.2c0.1-0.1,0.1-0.3,0.1-0.6v-17.6c0-0.3,0-0.5-0.1-0.6c-0.1-0.1-0.2-0.2-0.2-0.2
			c-0.1,0-0.3,0-0.4,0v-0.7h3.5v0.7c-0.2,0-0.3,0-0.4,0c-0.1,0-0.2,0.1-0.2,0.2c-0.1,0.1-0.1,0.3-0.1,0.6V294.5z"/>
		<path fill="#4D6F5A" d="M368.6,298.8c-0.3,0-0.6,0.1-0.9,0.2c-0.3,0.1-0.5,0.3-0.7,0.5c-0.2,0.3-0.4,0.6-0.5,1s-0.2,0.9-0.2,1.5
			c0,0.8,0,1.8,0,2.9c0,1.1,0,2.3,0,3.5c0,1.2,0,2.4,0,3.5c0,1.1,0,2.1,0,2.9c0,1.2,0.2,2.1,0.6,2.6c0.4,0.5,0.9,0.8,1.5,0.8
			c0.5,0,1-0.1,1.4-0.2c0.4-0.1,0.8-0.4,1-0.7c0.3-0.3,0.5-0.7,0.7-1.2c0.2-0.5,0.2-1.1,0.2-1.9v-0.8h0.7v1.5c0,1.3-0.3,2.2-1,2.9
			c-0.7,0.7-1.7,1-2.9,1c-0.6,0-1.2-0.1-1.8-0.4c-0.6-0.3-1.1-0.7-1.5-1.3c-0.3-0.4-0.4-0.8-0.6-1.3c-0.1-0.5-0.2-1.1-0.3-1.7
			c0-0.7-0.1-1.5-0.1-2.4c0-0.9,0-2,0-3.3c0-1.7,0-3.1,0-4.2c0-1.1,0.1-2,0.2-2.8c0.1-0.6,0.3-1.2,0.6-1.6c0.3-0.5,0.7-0.9,1.1-1.1
			c0.7-0.4,1.4-0.7,2.2-0.7c0.1,0,0.2,0,0.3,0c0.1,0,0.2,0,0.3,0l-0.1-0.1c0.1,0,0.2,0.1,0.2,0.1c0.4,0.1,0.8,0.2,1.1,0.3
			c0.3,0.1,0.5,0.3,0.7,0.3c0.2,0.1,0.3,0.1,0.4,0c0.2-0.1,0.3-0.4,0.3-0.8c0,0,0.1,0,0.1,0c0,0,0,0,0.1,0h0.6v5.1h-0.6
			c0-0.3,0-0.6-0.1-1c0-0.3-0.1-0.6-0.2-0.9c-0.1-0.3-0.2-0.6-0.3-1c0-0.1-0.1-0.2-0.2-0.4c-0.1-0.2-0.3-0.4-0.5-0.6
			c-0.2-0.2-0.5-0.3-0.8-0.5C369.4,298.8,369,298.7,368.6,298.8z"/>
		<path fill="#4D6F5A" d="M376.7,317.2c0,0.3,0,0.5,0.1,0.6c0.1,0.1,0.2,0.2,0.2,0.2c0.1,0.1,0.2,0.1,0.4,0v0.8h-3.5V318
			c0.2,0.1,0.3,0.1,0.4,0c0.1,0,0.1-0.1,0.2-0.2c0.1-0.1,0.1-0.3,0.1-0.6v-17.6c0-0.3,0-0.5-0.1-0.6c-0.1-0.1-0.2-0.2-0.2-0.2
			c-0.1,0-0.3,0-0.4,0v-0.7h3.5v0.7c-0.2,0-0.3,0-0.4,0c-0.1,0-0.2,0.1-0.2,0.2c-0.1,0.1-0.1,0.3-0.1,0.6V317.2z"/>
		<path fill="#4D6F5A" d="M386.5,315.7v3h-7.8V318c0.2,0.1,0.3,0.1,0.3,0c0.1,0,0.2-0.1,0.3-0.2c0.1-0.1,0.1-0.3,0.1-0.6v-17.6
			c0-0.3,0-0.5-0.1-0.6c-0.1-0.1-0.2-0.2-0.3-0.2c-0.1,0-0.2,0-0.3,0v-0.7h3.5v0.7c-0.2,0-0.3,0-0.4,0c-0.1,0-0.2,0.1-0.2,0.2
			c-0.1,0.1-0.1,0.3-0.1,0.6V318h2.7c0.4,0,0.7-0.1,0.9-0.3c0.2-0.2,0.4-0.5,0.5-0.8c0.1-0.3,0.2-0.7,0.2-1.2H386.5z"/>
		<path fill="#4D6F5A" d="M396.6,317.2c0,0.3,0.1,0.5,0.2,0.6c0.1,0.1,0.3,0.2,0.4,0.2c0.2,0,0.3,0,0.5,0v0.7h-4.3v-0.7
			c0.2,0,0.3,0,0.5,0c0.1,0,0.2-0.1,0.3-0.2c0.1-0.1,0.1-0.3,0.1-0.6c0,0-0.1-0.4-0.2-1c-0.1-0.6-0.2-1.5-0.4-2.6H390
			c-0.2,1.1-0.3,1.9-0.4,2.6c-0.1,0.6-0.2,1-0.2,1c-0.1,0.3-0.1,0.5,0,0.6c0.1,0.1,0.1,0.2,0.2,0.2c0.1,0,0.3,0,0.5,0v0.7h-2.8v-0.7
			c0.2,0,0.3,0,0.5,0c0.2,0,0.3-0.1,0.4-0.2c0.1-0.1,0.2-0.3,0.3-0.6c0,0,0-0.3,0.1-0.9s0.2-1.3,0.4-2.2c0.2-0.9,0.4-1.9,0.6-3.1
			c0.2-1.1,0.4-2.3,0.6-3.5l1.7-9.5h1.5c0.6,3.5,1.1,6.7,1.5,9.5c0.2,1.2,0.4,2.4,0.5,3.5c0.2,1.1,0.3,2.2,0.5,3.1
			c0.1,0.9,0.3,1.6,0.4,2.2C396.5,316.9,396.6,317.2,396.6,317.2z M390.2,312.9h3.5c-0.1-0.8-0.2-1.6-0.4-2.5
			c-0.1-0.9-0.3-1.8-0.4-2.7c-0.1-0.9-0.3-1.8-0.4-2.7c-0.1-0.9-0.3-1.7-0.4-2.4c-0.2,0.7-0.3,1.5-0.5,2.4c-0.2,0.9-0.3,1.8-0.5,2.7
			c-0.2,0.9-0.3,1.8-0.5,2.7C390.4,311.3,390.3,312.1,390.2,312.9z"/>
		<path fill="#4D6F5A" d="M406.1,298.1h2.5v0.7c-0.2,0-0.3,0-0.4,0c-0.1,0-0.2,0.1-0.3,0.2c-0.1,0.1-0.1,0.3-0.1,0.6v19.1h-2.4
			l-4.8-16.6v15.1c0,0.3,0,0.5,0.1,0.6c0.1,0.1,0.2,0.2,0.3,0.2c0.1,0,0.3,0,0.4,0v0.8h-2.5V318c0.2,0,0.3,0,0.4,0
			c0.1,0,0.2-0.1,0.3-0.2c0.1-0.1,0.1-0.3,0.1-0.6v-17.6c0-0.3,0-0.5-0.1-0.6c-0.1-0.1-0.2-0.2-0.3-0.2c-0.1,0-0.3,0-0.4,0v-0.7h3
			l5.1,17.6v-16c0-0.3,0-0.5-0.1-0.6c-0.1-0.1-0.2-0.2-0.3-0.2c-0.1,0-0.3,0-0.4,0V298.1z"/>
		<path fill="#4D6F5A" d="M419.2,298.1v3.1h-0.8c0-0.5-0.1-0.9-0.2-1.2c-0.1-0.3-0.3-0.6-0.5-0.8c-0.2-0.3-0.5-0.4-0.9-0.4h-1.2
			v18.5c0,0.3,0,0.5,0.1,0.6c0.1,0.1,0.2,0.2,0.3,0.2c0.1,0.1,0.2,0.1,0.3,0v0.8h-3.5V318c0.2,0.1,0.3,0.1,0.4,0
			c0.1,0,0.2-0.1,0.3-0.2c0.1-0.1,0.1-0.3,0.1-0.6v-18.5h-1.2c-0.4,0-0.7,0.1-0.9,0.4c-0.2,0.3-0.4,0.5-0.4,0.8
			c-0.1,0.3-0.2,0.8-0.2,1.2h-0.8v-3.1H419.2z"/>
		<path fill="#4D6F5A" d="M428.8,318.2c0.1,0,0.2,0,0.3-0.1c0.1,0,0.2-0.1,0.2-0.1v0.6c-0.1,0.1-0.3,0.2-0.4,0.3
			c-0.2,0.1-0.4,0.1-0.7,0.1c-0.3,0-0.5,0-0.8-0.1c-0.3-0.1-0.5-0.3-0.7-0.5c-0.2-0.2-0.4-0.5-0.5-0.8c-0.1-0.3-0.2-0.8-0.2-1.3
			v-4.7c0-0.4-0.1-0.8-0.2-1c-0.1-0.3-0.3-0.5-0.4-0.6c-0.2-0.1-0.4-0.2-0.6-0.3c-0.2,0-0.4-0.1-0.6-0.1H423v7.6
			c0,0.3,0,0.5,0.1,0.6c0.1,0.1,0.2,0.2,0.2,0.2c0.1,0.1,0.2,0.1,0.4,0v0.8h-3.5V318c0.1,0.1,0.3,0.1,0.3,0c0.1,0,0.2-0.1,0.3-0.2
			c0.1-0.1,0.1-0.3,0.1-0.6v-17.6c0-0.3,0-0.5-0.1-0.6c-0.1-0.1-0.2-0.2-0.3-0.3c-0.1,0-0.2,0-0.3,0V298h4.1c0.7,0,1.3,0.1,1.9,0.4
			c0.5,0.2,1,0.6,1.4,0.9c0.4,0.4,0.6,0.8,0.8,1.3c0.2,0.5,0.3,1,0.3,1.6v3.2c0,0.8-0.2,1.5-0.6,2.2c-0.4,0.7-1,1.2-1.8,1.6
			c1.1,0.4,1.6,1.3,1.6,2.5v4.6c0,0.5,0,0.9,0.1,1.3C428.2,318,428.4,318.2,428.8,318.2z M423,298.8v10h1.6c0.2,0,0.4-0.1,0.6-0.2
			c0.2-0.1,0.5-0.3,0.7-0.5c0.2-0.2,0.4-0.5,0.6-0.9c0.2-0.4,0.2-0.8,0.2-1.3v-4.4c0-0.5-0.1-0.9-0.2-1.3c-0.2-0.4-0.4-0.7-0.6-0.9
			s-0.5-0.4-0.7-0.5c-0.2-0.1-0.4-0.2-0.6-0.2H423z"/>
		<path fill="#4D6F5A" d="M439.3,308.5c0,1.3,0,2.3,0,3.3c0,0.9,0,1.7-0.1,2.4c0,0.7-0.1,1.3-0.3,1.7c-0.1,0.5-0.3,0.9-0.6,1.3
			c-0.4,0.6-0.9,1-1.5,1.3c-0.6,0.3-1.2,0.4-1.8,0.4c-0.6,0-1.2-0.1-1.8-0.4c-0.6-0.3-1.1-0.7-1.5-1.3c-0.3-0.4-0.4-0.8-0.6-1.3
			c-0.1-0.5-0.2-1.1-0.3-1.7c0-0.7-0.1-1.5-0.1-2.4c0-0.9,0-2,0-3.3c0-1.7,0-3.1,0-4.2c0-1.1,0.1-2,0.3-2.8c0.1-0.6,0.3-1.2,0.6-1.6
			s0.7-0.9,1.1-1.1c0.7-0.4,1.4-0.7,2.2-0.7c0.4,0,0.7,0.1,1.1,0.2c0.4,0.1,0.7,0.3,1.1,0.5c0.4,0.3,0.8,0.7,1.1,1.1s0.5,1,0.6,1.6
			c0.1,0.7,0.2,1.7,0.2,2.8C439.3,305.4,439.3,306.8,439.3,308.5z M437.3,314.9c0-0.8,0-1.8,0-2.9c0-1.1,0-2.3,0-3.5
			c0-1.2,0-2.4,0-3.5c0-1.1,0-2.1,0-2.9c0-1.2-0.2-2.1-0.6-2.5c-0.4-0.5-0.9-0.7-1.6-0.7c-0.6,0-1.1,0.2-1.6,0.7
			c-0.4,0.5-0.6,1.3-0.6,2.5v6.4v6.5c0,1.2,0.2,2.1,0.6,2.6c0.4,0.5,0.9,0.8,1.7,0.8c0.7,0,1.3-0.3,1.6-0.8
			C437.2,317,437.3,316.1,437.3,314.9z"/>
		<path fill="#4D6F5A" d="M386.9,329.5c1.3,1.7,2.2,3.2,2.8,4.6c0.6,1.4,0.8,2.8,0.5,4.2c-0.1,0.4-0.3,0.9-0.4,1.3
			c-0.2,0.4-0.4,0.8-0.7,1.1c-0.3,0.3-0.6,0.6-1.1,0.8c-0.4,0.2-0.9,0.3-1.5,0.3c-0.4,0-0.7-0.1-1.1-0.2c-0.3-0.2-0.6-0.3-0.9-0.4
			c-0.3-0.1-0.4-0.2-0.6-0.2c-0.1,0-0.2,0.2-0.2,0.6h-0.8v-5.2h0.8c-0.1,0.4-0.1,0.8,0,1.2c0,0.4,0.1,0.7,0.2,1.1
			c0.1,0.3,0.2,0.6,0.3,0.9c0.1,0.3,0.3,0.5,0.5,0.8c0.2,0.2,0.4,0.4,0.7,0.6c0.3,0.2,0.6,0.2,1.1,0.3c0.3,0,0.6-0.1,1-0.2
			c0.3-0.2,0.6-0.4,0.8-0.7c0.5-0.7,0.7-1.4,0.6-2.1c-0.1-0.8-0.3-1.5-0.7-2.2c-0.4-0.7-0.8-1.4-1.3-2c-0.5-0.6-0.9-1.2-1.3-1.7
			c-0.7-0.8-1.2-1.6-1.6-2.4c-0.4-0.8-0.7-1.6-0.9-2.3c-0.2-0.7-0.3-1.4-0.3-2.1c0-0.7,0.1-1.3,0.2-2c0.3-0.9,0.7-1.6,1.2-2.2
			c0.5-0.5,1.4-0.8,2.5-0.8c0.4,0,0.7,0.1,1,0.3c0.3,0.2,0.6,0.3,0.8,0.5c0.2,0.1,0.4,0.2,0.5,0.2c0.1,0,0.2-0.2,0.2-0.6h0.8v5.1
			h-0.8c0-0.9,0-1.6-0.2-2.3c-0.1-0.6-0.4-1.1-0.7-1.6c-0.3-0.5-0.9-0.7-1.6-0.7c-0.4,0-0.7,0.1-1.1,0.2c-0.3,0.2-0.6,0.4-0.8,0.6
			c-0.5,0.7-0.7,1.3-0.7,2c0,0.7,0.2,1.3,0.5,2c0.3,0.6,0.7,1.2,1.1,1.8C386.2,328.5,386.5,329,386.9,329.5z"/>
		<path fill="#4D6F5A" d="M400,331.2c0,1.3,0,2.3,0,3.3c0,0.9,0,1.7-0.1,2.4c0,0.7-0.1,1.3-0.3,1.7c-0.1,0.5-0.3,0.9-0.6,1.3
			c-0.4,0.6-0.9,1-1.5,1.3c-0.6,0.3-1.2,0.4-1.8,0.4c-0.6,0-1.2-0.1-1.8-0.4c-0.6-0.3-1.1-0.7-1.5-1.3c-0.3-0.4-0.4-0.8-0.6-1.3
			c-0.1-0.5-0.2-1.1-0.3-1.7c0-0.7-0.1-1.5-0.1-2.4c0-0.9,0-2,0-3.3c0-1.7,0-3.1,0-4.2c0-1.1,0.1-2,0.3-2.8c0.1-0.6,0.3-1.2,0.6-1.6
			c0.3-0.5,0.7-0.9,1.1-1.1c0.7-0.4,1.4-0.7,2.2-0.7c0.4,0,0.7,0.1,1.1,0.2c0.4,0.1,0.7,0.3,1.1,0.5c0.4,0.3,0.8,0.7,1.1,1.1
			c0.3,0.5,0.5,1,0.6,1.6c0.1,0.7,0.2,1.7,0.2,2.8C400,328.2,400,329.6,400,331.2z M398.1,337.7c0-0.8,0-1.8,0-2.9
			c0-1.1,0-2.3,0-3.5c0-1.2,0-2.4,0-3.5c0-1.1,0-2.1,0-2.9c0-1.2-0.2-2.1-0.6-2.5c-0.4-0.5-0.9-0.7-1.6-0.7c-0.6,0-1.1,0.2-1.6,0.7
			c-0.4,0.5-0.6,1.3-0.6,2.5v6.4v6.5c0,1.2,0.2,2.1,0.6,2.6c0.4,0.5,0.9,0.8,1.7,0.8c0.7,0,1.3-0.3,1.6-0.8
			C397.9,339.8,398.1,338.9,398.1,337.7z"/>
		<path fill="#4D6F5A" d="M404.8,320.8v0.7c-0.1,0-0.3,0-0.3,0c-0.1,0-0.2,0.1-0.3,0.2c-0.1,0.1-0.1,0.3-0.1,0.6c0,0,0,0.4,0,1
			c0,0.7,0,1.5,0,2.5c0,1,0,2.1,0,3.4c0,1.2,0,2.4,0,3.5s0,2,0,2.8s0,1.3,0,1.4c0,1.5,0.2,2.5,0.5,3.2c0.3,0.6,0.8,0.9,1.4,0.9h0h0
			c0.6,0,1-0.3,1.4-0.9c0.3-0.6,0.5-1.7,0.5-3.2v-2.3c0-0.5,0-1,0-1.5v-10.9c0-0.3,0-0.5-0.1-0.6c-0.1-0.1-0.1-0.2-0.2-0.2
			c-0.1,0-0.2,0-0.4,0v-0.7h3.4v0.7c-0.1,0-0.2,0-0.3,0c-0.1,0-0.2,0.1-0.2,0.2c-0.1,0.1-0.1,0.3-0.1,0.6v15.4
			c0,0.6-0.1,1.2-0.4,1.7c-0.2,0.5-0.6,0.9-0.9,1.3c-0.4,0.3-0.8,0.6-1.3,0.8c-0.5,0.2-0.9,0.3-1.4,0.3c-0.5,0-0.9-0.1-1.4-0.3
			c-0.5-0.2-0.9-0.4-1.3-0.8c-0.4-0.3-0.7-0.8-0.9-1.2c-0.2-0.5-0.3-1-0.3-1.7c0-0.1,0-0.4,0-0.8s0-1.1,0-1.8s0-1.6,0-2.5
			c0-0.9,0-1.8,0-2.8c0-0.9,0-1.9,0-2.8c0-0.9,0-1.7,0-2.4c0-0.7,0-1.3,0-1.7c0-0.4,0-0.6,0-0.7c0-0.3,0-0.5-0.1-0.6
			c-0.1-0.1-0.2-0.2-0.3-0.2c-0.1,0-0.2,0-0.3,0v-0.7H404.8z"/>
		<path fill="#4D6F5A" d="M420.8,325.1c0,0.5,0,1,0,1.6s0,1.1,0,1.5c0,0.5-0.1,1-0.3,1.5c-0.2,0.5-0.5,1-0.8,1.4
			c-0.4,0.4-0.8,0.7-1.4,1s-1.2,0.3-1.9,0.3H415v7.6c0,0.3,0,0.5,0.1,0.6c0.1,0.1,0.2,0.2,0.2,0.2c0.1,0.1,0.2,0.1,0.4,0v0.8h-3.5
			v-0.8c0.2,0.1,0.3,0.1,0.3,0c0.1,0,0.2-0.1,0.3-0.2c0.1-0.1,0.1-0.3,0.1-0.6v-17.6c0-0.3,0-0.5-0.1-0.6c-0.1-0.1-0.2-0.2-0.3-0.2
			c-0.1,0-0.2,0-0.3,0v-0.7h4.3c0.7,0,1.3,0.1,1.9,0.3c0.5,0.2,1,0.5,1.4,1c0.4,0.4,0.6,0.9,0.8,1.4
			C420.7,324,420.8,324.5,420.8,325.1z M418.8,324.4c0-0.5-0.1-0.9-0.2-1.3c-0.2-0.4-0.4-0.7-0.6-0.9c-0.2-0.2-0.5-0.4-0.7-0.5
			c-0.2-0.1-0.4-0.2-0.6-0.2H415v10.1h1.6c0.2,0,0.4,0,0.6-0.1c0.2-0.1,0.5-0.3,0.7-0.5c0.2-0.2,0.4-0.5,0.6-0.9
			c0.2-0.3,0.2-0.8,0.2-1.3V324.4z"/>
	</g>
	<g>
		<path fill="#4D6F5A" d="M379.3,265.3h3.7c0.7,0,1.3,0.2,1.7,0.5c0.4,0.3,0.6,0.8,0.6,1.3c0,0.3-0.1,0.6-0.2,0.8
			c-0.2,0.2-0.4,0.4-0.7,0.6c-0.3,0.1-0.8,0.3-1.4,0.3c0.5,0.1,0.8,0.2,0.9,0.4c0.2,0.1,0.3,0.3,0.4,0.5c0.1,0.2,0.2,0.6,0.4,1.2
			c0.1,0.4,0.2,0.7,0.3,0.9c0.1,0.1,0.2,0.2,0.3,0.2c0.1,0,0.2-0.1,0.3-0.2c0.1-0.1,0.1-0.4,0.2-0.8h0.3c-0.1,1.1-0.5,1.6-1.2,1.6
			c-0.2,0-0.4-0.1-0.6-0.2c-0.2-0.1-0.3-0.3-0.4-0.5c-0.1-0.2-0.1-0.6-0.2-1.4c0-0.4-0.1-0.7-0.2-0.9c-0.1-0.2-0.3-0.3-0.5-0.4
			c-0.2-0.1-0.5-0.2-0.8-0.2h-0.6v2.8c0,0.1,0,0.2,0.1,0.3c0.1,0.1,0.2,0.1,0.4,0.1h0.7v0.4h-3.3v-0.4h0.7c0.2,0,0.3,0,0.3-0.1
			c0.1-0.1,0.1-0.1,0.1-0.3V266c0-0.1,0-0.2-0.1-0.3c-0.1-0.1-0.2-0.1-0.3-0.1h-0.7V265.3z M381.5,268.6h0.8c0.6,0,1-0.1,1.3-0.3
			c0.3-0.2,0.5-0.6,0.5-1.1c0-0.4-0.1-0.7-0.2-0.9c-0.1-0.2-0.3-0.4-0.5-0.4c-0.2-0.1-0.6-0.1-1.2-0.1c-0.4,0-0.6,0-0.7,0.1
			c-0.1,0.1-0.1,0.1-0.1,0.3V268.6z"/>
		<path fill="#4D6F5A" d="M386.8,265.3h5.7l0.1,2.4h-0.3c-0.1-0.8-0.3-1.3-0.6-1.6c-0.3-0.3-0.6-0.5-1.1-0.5h-1.4
			c-0.1,0-0.2,0-0.3,0.1c-0.1,0.1-0.1,0.2-0.1,0.3v2.5h0.6c0.3,0,0.6-0.1,0.8-0.4c0.2-0.2,0.3-0.6,0.3-1.1h0.3v3.3h-0.3
			c0-0.5-0.1-0.9-0.3-1.2c-0.2-0.2-0.5-0.4-0.8-0.4h-0.6v2.8c0,0.1,0,0.2,0.1,0.2c0.1,0.1,0.2,0.1,0.3,0.1h1.1
			c1.2,0,1.9-0.8,2.1-2.3h0.3l-0.1,2.7h-5.9v-0.4h0.5c0.2,0,0.3,0,0.4-0.1c0.1-0.1,0.1-0.2,0.1-0.3V266c0-0.1,0-0.2-0.1-0.3
			c-0.1-0.1-0.2-0.1-0.3-0.1h-0.6V265.3z"/>
		<path fill="#4D6F5A" d="M399.1,265.9l0.3-0.7h0.3l0.1,2.9h-0.3c-0.2-0.8-0.5-1.4-0.8-1.8c-0.4-0.5-0.9-0.7-1.4-0.7
			c-0.6,0-1.1,0.3-1.5,0.8c-0.4,0.5-0.6,1.4-0.6,2.7c0,1.1,0.2,1.9,0.6,2.5c0.4,0.5,0.9,0.7,1.5,0.7c0.6,0,1.1-0.2,1.5-0.6
			c0.4-0.4,0.6-0.9,0.8-1.7h0.3c-0.1,0.9-0.4,1.5-0.9,2c-0.5,0.5-1.1,0.7-1.8,0.7c-0.6,0-1.1-0.1-1.6-0.4c-0.5-0.3-0.9-0.7-1.2-1.3
			c-0.3-0.6-0.4-1.2-0.4-1.8c0-0.7,0.2-1.4,0.5-2c0.3-0.6,0.7-1.1,1.2-1.4c0.5-0.3,1-0.5,1.6-0.5c0.3,0,0.6,0.1,0.9,0.2
			C398.4,265.4,398.7,265.6,399.1,265.9z"/>
		<path fill="#4D6F5A" d="M400.9,265.3h3.3v0.4h-0.6c-0.3,0-0.4,0-0.5,0.1c-0.1,0.1-0.1,0.2-0.1,0.4v5.4c0,0.2,0,0.4,0.1,0.4
			c0.1,0.1,0.2,0.1,0.4,0.1h0.6v0.4h-3.3v-0.4h0.6c0.2,0,0.4,0,0.4-0.1c0.1-0.1,0.1-0.2,0.1-0.4v-5.4c0-0.2,0-0.3-0.1-0.4
			c-0.1-0.1-0.3-0.1-0.5-0.1h-0.6V265.3z"/>
		<path fill="#4D6F5A" d="M404.9,265.3h3.5c0.8,0,1.4,0.2,1.8,0.5c0.4,0.4,0.6,0.8,0.6,1.4c0,0.6-0.2,1-0.6,1.3
			c-0.5,0.4-1.2,0.6-2,0.6h-1.3v2.4c0,0.1,0,0.2,0.1,0.3c0.1,0.1,0.2,0.1,0.4,0.1h0.8v0.4h-3.4v-0.4h0.7c0.1,0,0.2,0,0.3-0.1
			c0.1-0.1,0.1-0.1,0.1-0.2v-5.7c0-0.1,0-0.3-0.1-0.3c-0.1-0.1-0.2-0.1-0.5-0.1h-0.5V265.3z M407.1,268.9h1c0.6,0,1.1-0.1,1.3-0.4
			c0.3-0.3,0.4-0.7,0.4-1.3c0-0.4-0.1-0.7-0.2-1c-0.1-0.2-0.3-0.4-0.5-0.5c-0.2-0.1-0.6-0.2-1.2-0.2c-0.4,0-0.6,0-0.7,0.1
			c-0.1,0.1-0.1,0.2-0.1,0.4V268.9z"/>
		<path fill="#4D6F5A" d="M411.8,265.3h5.7l0.1,2.4h-0.3c-0.1-0.8-0.3-1.3-0.6-1.6c-0.3-0.3-0.6-0.5-1.1-0.5h-1.4
			c-0.1,0-0.2,0-0.3,0.1c-0.1,0.1-0.1,0.2-0.1,0.3v2.5h0.6c0.3,0,0.6-0.1,0.8-0.4c0.2-0.2,0.3-0.6,0.3-1.1h0.3v3.3h-0.3
			c0-0.5-0.1-0.9-0.3-1.2c-0.2-0.2-0.5-0.4-0.8-0.4h-0.6v2.8c0,0.1,0,0.2,0.1,0.2c0.1,0.1,0.2,0.1,0.3,0.1h1.1
			c1.2,0,1.9-0.8,2.1-2.3h0.3l-0.1,2.7h-5.9v-0.4h0.5c0.2,0,0.3,0,0.4-0.1c0.1-0.1,0.1-0.2,0.1-0.3V266c0-0.1,0-0.2-0.1-0.3
			c-0.1-0.1-0.2-0.1-0.3-0.1h-0.6V265.3z"/>
		<path fill="#4D6F5A" d="M422.8,265.8l0.4-0.6h0.4l0,2.6h-0.3c-0.2-0.8-0.5-1.4-0.9-1.7c-0.4-0.4-0.8-0.6-1.4-0.6
			c-0.4,0-0.8,0.1-1,0.4c-0.3,0.3-0.4,0.6-0.4,0.9c0,0.2,0.1,0.4,0.2,0.6s0.3,0.3,0.5,0.4c0.2,0.1,0.6,0.2,1.2,0.3
			c0.8,0.2,1.4,0.3,1.7,0.5c0.3,0.2,0.6,0.4,0.7,0.7c0.2,0.3,0.2,0.6,0.2,0.9c0,0.6-0.2,1.2-0.7,1.6c-0.4,0.4-1,0.6-1.7,0.6
			c-0.7,0-1.4-0.2-1.9-0.7l-0.5,0.7h-0.3v-2.8h0.3c0.1,0.8,0.4,1.4,0.9,1.8c0.5,0.4,1,0.7,1.6,0.7c0.5,0,0.9-0.1,1.2-0.4
			c0.3-0.3,0.5-0.6,0.5-1c0-0.2-0.1-0.4-0.2-0.6c-0.1-0.2-0.3-0.3-0.5-0.4c-0.2-0.1-0.7-0.3-1.4-0.4c-0.8-0.2-1.3-0.4-1.6-0.6
			c-0.4-0.3-0.6-0.8-0.6-1.4c0-0.6,0.2-1.1,0.6-1.5c0.4-0.4,0.9-0.6,1.5-0.6c0.3,0,0.6,0.1,0.9,0.2
			C422.3,265.4,422.6,265.6,422.8,265.8z"/>
	</g>
	<g>
		<rect x="359.5" y="270" fill="#4D6F5A" width="16.5" height="1.1"/>
	</g>
	<g>
		<rect x="427.6" y="270" fill="#4D6F5A" width="16.5" height="1.1"/>
	</g>
	<g>
		<path fill="#4D6F5A" d="M361.3,348.8h1.6v0.3h-0.2c-0.1,0-0.2,0-0.2,0c0,0-0.1,0.1-0.1,0.1c0,0.1,0,0.1,0,0.2l0.8,2.1l0.7-2
			c-0.1-0.2-0.2-0.3-0.3-0.4c-0.1-0.1-0.2-0.1-0.4-0.1v-0.3h1.8v0.3H365c-0.1,0-0.2,0-0.3,0.1c-0.1,0-0.1,0.1-0.1,0.1
			c0,0,0,0.1,0,0.2l0.8,2.1l0.7-1.9c0-0.1,0.1-0.2,0.1-0.3c0-0.1,0-0.2-0.1-0.2c-0.1,0-0.2-0.1-0.4-0.1v-0.3h1.4v0.3
			c-0.2,0-0.3,0.1-0.4,0.2c-0.1,0.1-0.2,0.2-0.2,0.4l-1.1,3h-0.2l-1-2.6l-0.9,2.6H363l-1.3-3.3c0-0.1-0.1-0.2-0.1-0.2
			s-0.1-0.1-0.3-0.1V348.8z"/>
		<path fill="#4D6F5A" d="M367.6,348.8l1.5,0v3.2c0,0.1,0,0.1,0.1,0.2c0.1,0.1,0.1,0.1,0.2,0.1h0.4v0.3h-2.1v-0.3h0.4
			c0.1,0,0.2,0,0.3-0.1c0.1-0.1,0.1-0.1,0.1-0.2v-2.3c0-0.1,0-0.3-0.1-0.3c-0.1-0.1-0.2-0.1-0.4-0.1h-0.3V348.8z M368.6,346.6
			c0.1,0,0.2,0,0.3,0.1c0.1,0.1,0.1,0.2,0.1,0.3c0,0.1,0,0.2-0.1,0.3c-0.1,0.1-0.2,0.1-0.3,0.1s-0.2,0-0.3-0.1
			c-0.1-0.1-0.1-0.2-0.1-0.3c0-0.1,0-0.2,0.1-0.3C368.4,346.7,368.5,346.6,368.6,346.6z"/>
		<path fill="#4D6F5A" d="M371.2,347.3h0.3v1.5h1.2v0.4h-1.2v2.4c0,0.2,0,0.4,0.1,0.5c0.1,0.1,0.2,0.2,0.4,0.2
			c0.2,0,0.3-0.1,0.5-0.2c0.1-0.2,0.2-0.4,0.2-0.8h0.3c0,0.5-0.1,0.9-0.3,1.1c-0.2,0.2-0.5,0.4-0.8,0.4c-0.3,0-0.5-0.1-0.7-0.3
			c-0.2-0.2-0.3-0.4-0.3-0.7v-2.5h-0.6v-0.3c0.3-0.1,0.5-0.2,0.7-0.4C371,348.3,371.1,347.8,371.2,347.3z"/>
		<path fill="#4D6F5A" d="M373.2,346.7l1.4-0.1v2.9c0.2-0.3,0.4-0.4,0.6-0.6c0.2-0.1,0.5-0.2,0.7-0.2c0.2,0,0.5,0.1,0.6,0.2
			c0.1,0.1,0.3,0.2,0.4,0.5c0.1,0.2,0.2,0.5,0.2,0.8v1.8c0,0.1,0,0.2,0.1,0.2c0.1,0.1,0.1,0.1,0.3,0.1h0.3v0.3h-2v-0.3h0.2
			c0.2,0,0.3,0,0.3-0.1c0.1-0.1,0.1-0.1,0.1-0.2v-1.8c0-0.3-0.1-0.5-0.2-0.7c-0.1-0.2-0.3-0.3-0.6-0.3c-0.2,0-0.4,0-0.5,0.1
			c-0.2,0.1-0.3,0.2-0.4,0.4c-0.1,0.2-0.2,0.4-0.2,0.6v1.5c0,0.1,0,0.2,0.1,0.3c0.1,0.1,0.1,0.1,0.3,0.1h0.3v0.3h-2v-0.3h0.2
			c0.2,0,0.3,0,0.3-0.1c0.1-0.1,0.1-0.2,0.1-0.3v-4.4c0-0.2,0-0.3-0.1-0.4c-0.1-0.1-0.2-0.1-0.4-0.1h-0.3V346.7z"/>
		<path fill="#4D6F5A" d="M384.9,347.1l0.3-0.6h0.2l0.1,2.4h-0.3c-0.2-0.7-0.4-1.1-0.7-1.5c-0.3-0.4-0.7-0.6-1.2-0.6
			c-0.5,0-0.9,0.2-1.2,0.7c-0.3,0.4-0.5,1.2-0.5,2.2c0,0.9,0.2,1.5,0.5,2c0.3,0.4,0.7,0.6,1.3,0.6c0.5,0,0.9-0.2,1.2-0.5
			c0.3-0.3,0.5-0.8,0.6-1.4h0.3c-0.1,0.7-0.3,1.2-0.7,1.6c-0.4,0.4-0.9,0.6-1.5,0.6c-0.5,0-0.9-0.1-1.3-0.4c-0.4-0.2-0.7-0.6-1-1.1
			c-0.2-0.5-0.4-1-0.4-1.5c0-0.6,0.1-1.1,0.4-1.6c0.3-0.5,0.6-0.9,1-1.2c0.4-0.3,0.8-0.4,1.3-0.4c0.3,0,0.5,0,0.7,0.1
			C384.4,346.8,384.7,346.9,384.9,347.1z"/>
		<path fill="#4D6F5A" d="M386.3,346.7l1.4-0.1v2.9c0.2-0.3,0.4-0.4,0.6-0.6c0.2-0.1,0.5-0.2,0.7-0.2c0.2,0,0.5,0.1,0.6,0.2
			c0.1,0.1,0.3,0.2,0.4,0.5c0.1,0.2,0.2,0.5,0.2,0.8v1.8c0,0.1,0,0.2,0.1,0.2c0.1,0.1,0.1,0.1,0.3,0.1h0.3v0.3h-2v-0.3h0.2
			c0.2,0,0.3,0,0.3-0.1c0.1-0.1,0.1-0.1,0.1-0.2v-1.8c0-0.3-0.1-0.5-0.2-0.7c-0.1-0.2-0.3-0.3-0.6-0.3c-0.2,0-0.4,0-0.5,0.1
			c-0.2,0.1-0.3,0.2-0.4,0.4c-0.1,0.2-0.2,0.4-0.2,0.6v1.5c0,0.1,0,0.2,0.1,0.3c0.1,0.1,0.1,0.1,0.3,0.1h0.3v0.3h-2v-0.3h0.2
			c0.2,0,0.3,0,0.3-0.1c0.1-0.1,0.1-0.2,0.1-0.3v-4.4c0-0.2,0-0.3-0.1-0.4c-0.1-0.1-0.2-0.1-0.4-0.1h-0.3V346.7z"/>
		<path fill="#4D6F5A" d="M391.2,348.8l1.5,0v3.2c0,0.1,0,0.1,0.1,0.2c0.1,0.1,0.1,0.1,0.2,0.1h0.4v0.3h-2.1v-0.3h0.4
			c0.1,0,0.2,0,0.3-0.1c0.1-0.1,0.1-0.1,0.1-0.2v-2.3c0-0.1,0-0.3-0.1-0.3c-0.1-0.1-0.2-0.1-0.4-0.1h-0.3V348.8z M392.3,346.6
			c0.1,0,0.2,0,0.3,0.1c0.1,0.1,0.1,0.2,0.1,0.3c0,0.1,0,0.2-0.1,0.3c-0.1,0.1-0.2,0.1-0.3,0.1s-0.2,0-0.3-0.1
			c-0.1-0.1-0.1-0.2-0.1-0.3c0-0.1,0-0.2,0.1-0.3C392.1,346.7,392.2,346.6,392.3,346.6z"/>
		<path fill="#4D6F5A" d="M395.3,346.6v5.4c0,0.1,0,0.1,0.1,0.2c0.1,0.1,0.1,0.1,0.2,0.1h0.4v0.3h-2.1v-0.3h0.4c0.1,0,0.2,0,0.3-0.1
			c0.1-0.1,0.1-0.1,0.1-0.2v-4.5c0-0.1,0-0.2-0.1-0.3c-0.1-0.1-0.2-0.1-0.4-0.1h-0.3v-0.3L395.3,346.6z"/>
		<path fill="#4D6F5A" d="M399.9,350.7h-2.7c0,0.6,0.1,1,0.3,1.2c0.2,0.3,0.5,0.4,0.9,0.4c0.5,0,0.9-0.3,1.2-0.9l0.3,0.1
			c-0.4,0.7-0.9,1.1-1.7,1.1c-0.5,0-0.9-0.2-1.3-0.5c-0.3-0.4-0.5-0.8-0.5-1.4c0-0.6,0.2-1.1,0.5-1.5c0.3-0.4,0.7-0.6,1.2-0.6
			c0.4,0,0.7,0.1,0.9,0.3c0.3,0.2,0.5,0.4,0.6,0.8C399.8,350,399.9,350.3,399.9,350.7z M397.2,350.4h1.6c0.1,0,0.2,0,0.2-0.1
			c0.1-0.1,0.1-0.2,0.1-0.3c0-0.3-0.1-0.5-0.3-0.7c-0.2-0.2-0.4-0.3-0.6-0.3c-0.3,0-0.5,0.1-0.7,0.4
			C397.3,349.6,397.2,349.9,397.2,350.4z"/>
		<path fill="#4D6F5A" d="M406.6,352.1l0.1,0.2c-0.2,0.2-0.4,0.3-0.6,0.3c-0.2,0-0.3,0-0.5-0.1c-0.1-0.1-0.2-0.3-0.3-0.5
			c-0.3,0.3-0.5,0.4-0.7,0.5c-0.2,0.1-0.4,0.1-0.7,0.1c-0.4,0-0.7-0.1-0.9-0.2c-0.2-0.2-0.3-0.4-0.3-0.6c0-0.4,0.2-0.7,0.7-1
			c0.5-0.3,1.1-0.4,1.8-0.5v-0.6c0-0.2-0.1-0.4-0.2-0.5c-0.2-0.1-0.4-0.2-0.6-0.2c-0.2,0-0.4,0-0.6,0.1c-0.1,0.1-0.2,0.1-0.2,0.2
			c0,0,0,0.1,0.1,0.2c0.1,0.1,0.1,0.2,0.1,0.3c0,0.1,0,0.2-0.1,0.3c-0.1,0.1-0.2,0.1-0.3,0.1c-0.1,0-0.2,0-0.3-0.1
			c-0.1-0.1-0.1-0.2-0.1-0.3c0-0.3,0.1-0.5,0.4-0.7c0.3-0.2,0.7-0.3,1.2-0.3c0.4,0,0.8,0.1,1,0.3c0.2,0.2,0.3,0.4,0.3,0.7v2
			c0,0.2,0,0.3,0.1,0.4c0.1,0.1,0.1,0.1,0.2,0.1C406.4,352.2,406.5,352.2,406.6,352.1z M405.3,350.6c-0.7,0.1-1.1,0.2-1.4,0.5
			c-0.2,0.2-0.3,0.4-0.3,0.7c0,0.2,0.1,0.4,0.2,0.5c0.1,0.1,0.2,0.2,0.4,0.2c0.3,0,0.6-0.1,0.8-0.4c0.2-0.2,0.3-0.5,0.3-0.9V350.6z"
			/>
		<path fill="#4D6F5A" d="M407.2,348.8l1.2-0.1c0,0.2,0.1,0.5,0.1,0.8c0.2-0.3,0.4-0.5,0.6-0.6c0.2-0.1,0.5-0.2,0.8-0.2
			c0.2,0,0.4,0,0.6,0.1c0.2,0.1,0.3,0.2,0.4,0.5c0.1,0.2,0.1,0.4,0.1,0.7v1.8c0,0.1,0,0.2,0.1,0.3s0.2,0.1,0.3,0.1h0.3v0.3h-2v-0.3
			h0.2c0.2,0,0.3,0,0.4-0.1c0.1-0.1,0.1-0.1,0.1-0.2v-1.6c0-0.3-0.1-0.6-0.2-0.8c-0.1-0.2-0.4-0.4-0.7-0.4c-0.3,0-0.5,0.1-0.7,0.4
			c-0.2,0.2-0.3,0.6-0.3,0.9v1.4c0,0.1,0,0.2,0.1,0.3c0.1,0.1,0.2,0.1,0.3,0.1h0.3v0.3h-2v-0.3h0.3c0.1,0,0.2,0,0.3-0.1
			c0.1-0.1,0.1-0.1,0.1-0.2v-2.4c0-0.2,0-0.3-0.1-0.4c-0.1-0.1-0.2-0.1-0.4-0.1h-0.2V348.8z"/>
		<path fill="#4D6F5A" d="M414.3,346.7l1.4-0.1v5.1c0,0.2,0,0.3,0.1,0.4c0.1,0.1,0.2,0.1,0.3,0.1h0.3v0.3h-1.3l-0.1-0.8
			c-0.1,0.3-0.3,0.5-0.5,0.6c-0.2,0.1-0.4,0.2-0.7,0.2c-0.4,0-0.8-0.2-1.1-0.5c-0.3-0.4-0.4-0.8-0.4-1.4c0-0.6,0.2-1.1,0.6-1.5
			c0.3-0.3,0.6-0.4,1-0.4c0.2,0,0.4,0.1,0.6,0.2c0.2,0.1,0.4,0.3,0.5,0.5v-2.1c0-0.1,0-0.2-0.1-0.3c-0.1-0.1-0.2-0.1-0.4-0.1h-0.3
			V346.7z M414,349c-0.3,0-0.5,0.1-0.7,0.4c-0.2,0.2-0.3,0.6-0.3,1.2c0,0.6,0.1,1,0.3,1.3c0.2,0.2,0.4,0.4,0.7,0.4
			c0.3,0,0.5-0.1,0.7-0.4c0.2-0.3,0.3-0.7,0.3-1.2c0-0.5-0.1-0.9-0.3-1.2C414.5,349.2,414.3,349,414,349z"/>
		<path fill="#4D6F5A" d="M418.9,346.7h1.9l1.7,4.6l1.6-4.6h2v0.3h-0.5c-0.2,0-0.3,0-0.3,0.1c-0.1,0-0.1,0.1-0.1,0.3v4.6
			c0,0.1,0,0.2,0.1,0.2c0.1,0.1,0.2,0.1,0.4,0.1h0.4v0.3h-2.7v-0.3h0.5c0.1,0,0.2,0,0.3-0.1c0.1-0.1,0.1-0.1,0.1-0.2v-5l-1.9,5.5
			h-0.3l-2.1-5.5v4.2c0,0.3,0,0.4,0.1,0.6c0.1,0.1,0.2,0.2,0.3,0.3c0.1,0.1,0.3,0.1,0.6,0.1v0.3h-2.2v-0.3c0.4,0,0.6-0.1,0.7-0.2
			c0.1-0.1,0.2-0.4,0.2-0.7v-4c0-0.1,0-0.2-0.1-0.2c-0.1,0-0.2-0.1-0.3-0.1h-0.5V346.7z"/>
		<path fill="#4D6F5A" d="M426.6,348.8l1.5,0v3.2c0,0.1,0,0.1,0.1,0.2c0.1,0.1,0.1,0.1,0.2,0.1h0.4v0.3h-2.1v-0.3h0.4
			c0.1,0,0.2,0,0.3-0.1c0.1-0.1,0.1-0.1,0.1-0.2v-2.3c0-0.1,0-0.3-0.1-0.3c-0.1-0.1-0.2-0.1-0.4-0.1h-0.3V348.8z M427.7,346.6
			c0.1,0,0.2,0,0.3,0.1c0.1,0.1,0.1,0.2,0.1,0.3c0,0.1,0,0.2-0.1,0.3c-0.1,0.1-0.2,0.1-0.3,0.1c-0.1,0-0.2,0-0.3-0.1
			c-0.1-0.1-0.1-0.2-0.1-0.3c0-0.1,0-0.2,0.1-0.3C427.4,346.7,427.5,346.6,427.7,346.6z"/>
		<path fill="#4D6F5A" d="M429.2,348.8l1.2-0.1c0,0.2,0.1,0.5,0.1,0.8c0.2-0.3,0.4-0.5,0.6-0.6c0.2-0.1,0.5-0.2,0.8-0.2
			c0.2,0,0.4,0,0.6,0.1c0.2,0.1,0.3,0.2,0.4,0.5c0.1,0.2,0.1,0.4,0.1,0.7v1.8c0,0.1,0,0.2,0.1,0.3s0.2,0.1,0.3,0.1h0.3v0.3h-2v-0.3
			h0.2c0.2,0,0.3,0,0.4-0.1c0.1-0.1,0.1-0.1,0.1-0.2v-1.6c0-0.3-0.1-0.6-0.2-0.8c-0.1-0.2-0.4-0.4-0.7-0.4c-0.3,0-0.5,0.1-0.7,0.4
			c-0.2,0.2-0.3,0.6-0.3,0.9v1.4c0,0.1,0,0.2,0.1,0.3c0.1,0.1,0.2,0.1,0.3,0.1h0.3v0.3h-2v-0.3h0.3c0.1,0,0.2,0,0.3-0.1
			c0.1-0.1,0.1-0.1,0.1-0.2v-2.4c0-0.2,0-0.3-0.1-0.4c-0.1-0.1-0.2-0.1-0.4-0.1h-0.2V348.8z"/>
		<path fill="#4D6F5A" d="M435.2,347.3h0.3v1.5h1.2v0.4h-1.2v2.4c0,0.2,0,0.4,0.1,0.5c0.1,0.1,0.2,0.2,0.4,0.2
			c0.2,0,0.3-0.1,0.5-0.2s0.2-0.4,0.2-0.8h0.3c0,0.5-0.1,0.9-0.3,1.1c-0.2,0.2-0.5,0.4-0.8,0.4c-0.3,0-0.5-0.1-0.7-0.3
			c-0.2-0.2-0.3-0.4-0.3-0.7v-2.5h-0.6v-0.3c0.3-0.1,0.5-0.2,0.7-0.4C435,348.3,435.1,347.8,435.2,347.3z"/>
	</g>
</g>
<g>
</g>
<g>
</g>
<g>
</g>
<g>
</g>
<g>
</g>
<g>
</g>
</svg>
